<?xml version="1.0" encoding="utf-8"?>
<!-- Generator: Adobe Illustrator 25.4.1, SVG Export Plug-In . SVG Version: 6.00 Build 0)  -->
<svg version="1.1" xmlns="http://www.w3.org/2000/svg" xmlns:xlink="http://www.w3.org/1999/xlink" x="0px" y="0px"
	 viewBox="0 0 841.9 595.3" style="enable-background:new 0 0 841.9 595.3;" xml:space="preserve">
<style type="text/css">
	.st0{fill:#561717;}
	.st1{fill:#701E1D;}
	.st2{fill:#8A2828;}
	.st3{fill:#A03232;}
	.st4{fill:#BD4242;}
	.st5{fill:#D85756;}
	.st6{fill:#ED6B6B;}
	.st7{fill:#EF7D81;}
</style>
<g id="Layer_9">
	<rect class="st0" width="841.9" height="595.3"/>
</g>
<g id="Layer_8">
	<path class="st1" d="M0,358c370.4,17.1,475.7,7.9,481.4-7.9c0.4-1.1,4.2-12.8,7.9-12.5c4.6,0.4,5.6,19.3,7.2,24.3
		c6.4,19.5,85,21.6,345.3-29.6v262.9H0V358z"/>
</g>
<g id="Layer_7">
	<path class="st1" d="M0,228.4c249.3,1.4,442.3,8.7,443.3,28.3c0.2,3.8-6.7,10.4-5.3,11.8c2.8,2.8,26.2-23.9,50.7-34.2
		c42-17.7,86.7,12.9,119.7,26.3c44.2,17.9,115.9,24.7,233.5-32.9V0H0V228.4z"/>
</g>
<g id="Layer_6">
	<path class="st2" d="M359.7,0c8,72.9,11.4,167.9-3.3,277.1c-18.1,134.5-57.2,242.6-91.4,318.2H0V0H359.7z"/>
	<path class="st2" d="M598.6,0c-1.8,152.6-8.9,262.6-26.3,263.9c-4.2,0.3-7-6-9.9-5.3c-10,2.5-2.4,83.2,46.7,336.6h232.8V0H598.6z"
		/>
</g>
<g id="Layer_5">
	<path class="st3" d="M0,380.4c74.3-30.4,184.3-61.4,308.4-38.2c70.1,13.1,97.8,34.8,156.6,48c81.1,18.3,203.6,16.5,376.9-82.9
		v287.9H0V380.4z"/>
	<path class="st3" d="M841.9,124.4C677.5,244,609.7,248,578.8,226.4c-19.1-13.4-20.4-34.1-49.3-47.4c-54.8-25.1-123.9,15.5-131.6,0
		c-3-6,7.1-12.6,4.6-17.8c-7.8-16.3-113.1,35.5-215.8,39.5C140.4,202.5,77,195.3,0,156.7V0h841.9V124.4z"/>
</g>
<g id="Layer_4">
	<path class="st4" d="M629.5,0c41.3,144.5,32.2,242,15.1,305.4c-5,18.5-11.8,38.4-16.4,70.4c-13.1,90.4,7,167.8,26.3,219.5h187.4V0
		H629.5z"/>
	<path class="st4" d="M225.5,595.3c-16.9-158.1-11.2-213.8,0.7-228.7c1-1.3,10.4-12.7,7.9-15.8c-2.6-3.2-14.2,6.7-23.7,6.6
		c-29.9-0.4-81.8-100.2-53.1-179.9c18.3-50.7,57.4-60.5,57.7-103c0.3-31.4-20.7-57.3-38.8-74.4H0v595.3H225.5z"/>
</g>
<g id="Layer_3">
	<path class="st5" d="M841.9,490.9c-138.6-46.3-243.5-44.7-314.4-34.2c-75.7,11.2-192.1,44.1-248.7-11.8
		c-11.5-11.4-35.7-41.4-45.4-36.2c-7.5,4,2.1,24.7-4.6,34.2c-11.3,16-52.2-73.7-223-73.7c-5.8,0-5.8,0-5.8,0v226.1h841.9V490.9z"/>
	<path class="st5" d="M841.9,121.8c-183.1-33.4-248.2-23.1-259.1,3.3c-10.2,24.7,25.3,67.7,18.4,72.4c-5.1,3.5-22.8-21.3-45.4-39.5
		c-69.2-55.7-181.4-47.1-255.9-17.1c-34.1,13.8-31.4,20.4-56.6,29.6C160.6,200.8,67.7,152.9,0,105.4V0h841.9V121.8z"/>
</g>
<g id="Layer_2">
	<path class="st6" d="M152.5,595.3C47.4,461,40.5,400.6,59.1,371.2c16.1-25.5,58.3-38.9,63.2-78.9c2.6-21.5-7.1-38.5-10.5-45.4
		C94.6,212.8,88,145.7,135.4,0H0v595.3H152.5z"/>
	<path class="st6" d="M751.8,0h90v595.3h-121c28.6-140.1,32.5-240.9,30.9-306.4c-1.4-55.4-7.4-113.4-16.4-113.8
		c-4.3-0.2-8.3,12.6-10.5,11.8c-2.9-1,0.1-23.5,7.2-46.7C751,78.8,783.5,61.3,776.8,31c-1.7-8-6.7-19.3-22.4-31"/>
</g>
<g id="Layer_1">
	<path class="st7" d="M841.9,24.4c-92,28-167.7,40.8-220.3,47.4c-114.5,14.3-192.6,8-252.6,66.4c-16.8,16.4-37.7,43.1-43.4,39.5
		c-9.5-6,46.9-78.8,24.3-110.5c-21.2-29.7-108.1-18.7-125,17.1c-7.6,16.1-0.2,35.6-5.9,37.5c-7.1,2.4-17.5-28.6-34.2-42.1
		C162.2,61.5,112.7,62.8,0,131V0h841.9V24.4z"/>
	<path class="st7" d="M841.9,448.1c-63.6,31.3-119.5,46.2-159.8,53.9c-45,8.6-141.5,27.1-163.2-9.9c-12.8-21.9,5.3-55.3-1.3-57.9
		c-8.3-3.2-24.7,54.7-64.5,66.4c-30.8,9.1-61.8-13.4-71.7-19.7C338.6,453.8,241.5,443.6,0,525.8v69.5h841.9V448.1z"/>
</g>
</svg>
