<?xml version="1.0" encoding="utf-8"?>
<!-- Generator: Adobe Illustrator 25.4.1, SVG Export Plug-In . SVG Version: 6.00 Build 0)  -->
<svg version="1.1" xmlns="http://www.w3.org/2000/svg" xmlns:xlink="http://www.w3.org/1999/xlink" x="0px" y="0px"
	 viewBox="0 0 841.9 595.3" style="enable-background:new 0 0 841.9 595.3;" xml:space="preserve">
<style type="text/css">
	.st0{fill:#F4A2A2;}
	.st1{fill:#F08187;}
	.st2{fill:#C75447;}
	.st3{fill:#DE7A7A;}
	.st4{fill:#CC6364;}
	.st5{fill:#BB4F4F;}
	.st6{fill:#A53D3E;}
	.st7{fill:#943131;}
</style>
<g id="Layer_6">
	<path class="st0" d="M841.9,595.3H0C0,396.9,0,198.4,0,0c280.6,0,561.3,0,841.9,0V595.3z"/>
</g>
<g id="Layer_10">
	<path class="st1" d="M841.9,213.2c-67.8-6-108-10.9-107.9-14c0.2-3.6,55.3-3,55.4-5.7c0.1-4.7-168.3-13-168.2-16.6
		c0.1-2,50.3-2.7,50.3-5.7c0.1-4-85.7-2.2-103.8-35c-1.5-2.8-5.6-11.2-3.2-13.4c2.7-2.4,10.4,6.1,22.9,8.9
		c16.6,3.7,34.5-4.3,34.4-8.9c-0.2-5.8-28.3-8.5-28-10.2c0.4-2.7,72.6,7.5,73.9,1.3c0.6-3-15.7-7.8-15.3-9.6
		c0.9-3.8,78.7,10.9,189.4,33.8V213.2z"/>
</g>
<g id="Layer_8">
	<path class="st1" d="M0,117.1c34.9-0.8,64.7,0.6,65.8,7.6c0.8,5.2-14.2,10.1-13.4,12.7c2.5,8.4,160.8-29.3,159.2-37.6
		c-0.7-3.7-32.9-0.4-33.1-2.5C178.3,94,252,87,251.8,78.8c-0.1-4.2-20.1-6.5-19.7-9.6c0.3-2.6,15.4-3.1,22.9-3.2
		c19.3-0.3,29-0.4,47.1,2.5c45.1,7.3,99.9-2.4,100-6.4c0-3.3-38.3-6.3-47.1-7C288,50,241.5,57.1,241,54
		c-0.6-4.2,83.3-18.5,82.8-22.3c-0.6-4.5-118.9,9.5-119.7,3.8c-0.5-3.5,43.2-11,42.7-15.9c-0.6-4.9-45.6-3.4-52.2-3.2
		C151.2,18,87.1,22.8,0,37.4V117.1z"/>
</g>
<g id="Layer_7">
	<circle class="st2" cx="441" cy="354" r="156.7"/>
</g>
<g id="Layer_9">
	<path class="st3" d="M0,401.1c133.9-18.8,234-23.2,300.9-23.6c11.3-0.1,21.3,0,22.9,0c126,0.7,212.6,12.9,249.7,16.6
		c60.8,6,149.7,5.2,268.4-27.4v380.8H0V401.1z"/>
</g>
<g id="Layer_4">
	<path class="st4" d="M841.9,419c-124.4,34-213,26.8-271.6,13.4c-29-6.7-60.6-17.1-111.5-19.7c-77.2-4-132.3,13.4-163.7,21
		c-62.4,15.1-157.5,21.9-295.1-21v334.9h841.9V419z"/>
</g>
<g id="Layer_3">
	<path class="st5" d="M0,490.9c48.6,2.2,121.6,0.2,206-24.8c36.6-10.8,31.5-13,59.2-20.4c108.2-28.7,150,14,273.9,2.5
		c62.5-5.8,56.6-17.1,119.7-21.7c76.3-5.5,140,7.1,183,19.1v301.8H0V490.9z"/>
</g>
<g id="Layer_2">
	<path class="st6" d="M0,494.1c50.4,16.2,125.3,34.9,216.8,36.9c93.2,2.1,160.4-14.1,203.8-22.9c95-19.3,233.9-35.6,421.3-19.1
		v258.5H0V494.1z"/>
</g>
<g id="Foreground">
	<path class="st7" d="M0,548.4c42.1-13.7,105.3-29.3,182.4-29.3c73.1,0,75.3,14.2,165,21c103,7.9,194.3,14.8,287.3-24.8
		c27-11.5,50.3-25.4,88.5-26.8c49.7-1.8,91.1,18.5,118.7,36.3v247.6H0V548.4z"/>
</g>
</svg>
