<?xml version="1.0" encoding="utf-8"?>
<!-- Generator: Adobe Illustrator 25.4.1, SVG Export Plug-In . SVG Version: 6.00 Build 0)  -->
<svg version="1.1" xmlns="http://www.w3.org/2000/svg" xmlns:xlink="http://www.w3.org/1999/xlink" x="0px" y="0px"
	 viewBox="0 0 841.9 595.3" style="enable-background:new 0 0 841.9 595.3;" xml:space="preserve">
<style type="text/css">
	.st0{fill:#8BC174;}
	.st1{fill:#C0DA9D;}
	.st2{fill:#D4E5B5;}
	.st3{fill:#709E59;}
	.st4{fill:#548943;}
	.st5{fill:#447236;}
	.st6{fill:#345B27;}
	.st7{fill:#26471F;}
</style>
<g id="Layer_5">
	<rect class="st0" width="841.9" height="595.5"/>
	<path class="st0" d="M297.9,231"/>
</g>
<g id="Layer_8">
	<path class="st1" d="M0,40.2c88.8,46.8,115.1,54.9,118.3,50c2.1-3.2-6.6-10.8-3.9-15.1c7-11.4,77.6,23.1,82.9,13.8
		c3.3-5.8-22.9-21.3-19.1-33.6c4.5-14.2,46.1-12.1,46.1-15.8c0-3.7-42.1-5.6-42.1-8.6c-0.1-4.5,94.1-5.5,94.7-15.1
		c0.3-3.8-13.7-8.9-50-15.9H0V40.2z"/>
	<path class="st1" d="M582.8,138.3c-56.2,2.2-110.9-0.9-111.8-9.9c-0.5-4.3,11.4-7.4,10.5-11.8c-1.5-7.7-39.5-6.6-39.5-7.9
		c0-1.6,56.1,0.4,58.6-11.2c1.2-5.5-10.7-9.4-9.9-14.5c2.4-15.2,113.5-8.8,113.8-13.2c0.2-2.4-32.9-4.7-32.9-7.9
		c0.1-5.6,104-10.1,104.6-4.6c0.3,2.7-25.9,6-25.7,10.5c0.3,6.8,59.2,7.6,59.2,11.2c0.1,4.9-112.5,8.7-112.5,13.2
		c0,4.9,140.5,6.9,140.8,16.4c0.1,4.7-33.3,8.8-32.9,12.5c0.6,5.2,67-1.6,69.1,8.6c0.9,4.3-10.2,10.9-19.7,14.5
		c-32.7,12.5-56.5-5.5-100-10.5C631.7,131,638.8,136,582.8,138.3z"/>
</g>
<g id="Layer_7">
	<circle class="st2" cx="415.7" cy="212.6" r="120.4"/>
</g>
<g id="Layer_6">
	<path class="st3" d="M0,347.5c165.6-84.7,212.8-99.4,217.6-91.4c2,3.2-4.1,8.6-1.3,13.8c7.6,14.4,73.7,9.6,115.8-27.6
		c34.2-30.2,44.6-74.7,54.6-71.7c6.5,2,0.9,20.7,14.5,34.2c10.5,10.5,20.9,6.3,32.2,15.1c15.4,12,13.1,33,16.4,46.7
		c14.4,59.7,163.8,103.3,211.2,56.6c19.7-19.4,21-53.8,33.6-53.3c8.1,0.3,13.1,15.1,16.4,22.4c10.6,23.1,41.4,49.5,130.8,61.8v241.2
		H0V347.5z"/>
</g>
<g id="Layer_4">
	<path class="st4" d="M0,421.8c15.5,2.2,94.9,12.8,109.1-17.1c4.2-8.9,4.7-25.7,0-27.6c-4.3-1.7-10.6,9.9-13.8,8.6
		c-7-3,4.6-67.1,20.4-67.8c14-0.6,30.9,48.3,21.7,55.3c-4.8,3.6-14.7-5.4-18.4-2c-4.9,4.6,4.4,28.2,19.7,42.8
		c36.5,34.5,115.4,24.9,128.9-4.6c4.4-9.6,3.6-25-2-27.6c-5-2.3-11.1,6.5-15.1,4.6c-9-4.2-0.4-58.1,13.2-59.2
		c13.4-1.1,30.7,49.2,23.7,53.9c-2.9,2-9.2-4.4-11.2-2.6c-3.3,2.9,7.3,24.6,21.7,38.8c34.7,34.2,102.1,34.5,111.2,15.8
		c4.1-8.4-2.3-23.3-8.6-24.3c-5.2-0.8-8.5,8-11.8,7.2c-8.7-2.1-9.3-66.4,5.3-69.7c14-3.2,41.4,50.6,32.9,58.6
		c-3.9,3.6-14.1-3.2-16.4,0c-3.3,4.5,13.6,22.9,21.7,30.3c55.1,50.3,191.8,36.2,207.2-6.6c2.4-6.6,4.9-22.4,0-25
		c-4-2.1-9.6,6.2-13.8,4.6c-9.7-3.7-6.7-57.4,7.9-60.5c14.2-3,38.7,42.1,30.9,50.7c-3.4,3.7-11.6-0.7-13.8,2.6
		c-3.9,5.8,15.7,27.3,26.3,34.9c45,32.2,143.4-30.5,165-44.7v204.4H0V421.8z"/>
</g>
<g id="Layer_3">
	<path class="st5" d="M0,458.7c38.3-9.5,46.6-17.1,46.6-22.4c-0.1-8.1-19.7-8.9-25-22.4c-7.6-19.1,16.2-56.5,37.5-54.6
		c22.8,2.1,38.8,48.8,26.3,64.5c-7.4,9.3-23,5.4-23.7,9.2c-1.3,6.8,48.6,28.1,110.5,36.2c70.9,9.3,166.4,2.6,173.7-27.6
		c2.7-11.2-6.1-28.6-14.5-29.6c-7.2-0.9-12,10.5-15.1,9.2c-6.9-2.8-2-64.2,21.1-68.4c20.9-3.8,48,40.9,41.4,49.3
		c-3.7,4.7-16.9-3.2-21.1,2c-5.1,6.4,6.9,28.3,23,42.1c35.2,30.2,99.4,29.9,115.8,4.6c5.4-8.3,7.6-22.3,2.6-26.3
		c-4.5-3.6-12,3.1-16.4,0c-8.8-6.1-0.7-47.4,16.4-50.7c18.1-3.4,42.1,36.7,34.9,46.7c-4,5.5-16.7,0.8-17.8,3.9
		c-1.8,4.9,27.4,24.3,60.5,34.2c64.8,19.3,142.8,1.4,146.7-22.4c1.6-9.6-8.5-23.3-17.1-23.7c-7.8-0.4-11.4,10.3-15.8,9.2
		c-9.4-2.3-15.7-56.4,4.6-65.1c17.6-7.5,48.8,21.6,45.4,30.9c-1.9,5.3-14.5,2.4-17.1,8.6c-3.4,8.1,14.1,24.4,27.6,32.9
		c30.1,18.9,66.5,15.4,90.7,9.9v156.4H0V458.7z"/>
</g>
<g id="Layer_2">
	<path class="st6" d="M0,504.7c36.4-37.3,66.1-47.2,90-44.7c31.2,3.2,39.1,26.1,73.7,29.6c48.5,4.9,93.7-34,90.8-42.1
		c-2.1-5.7-27.7,4.9-33.7-4.3c-10.7-16.6,46.2-91.9,79.1-80.5c29.9,10.4,32.5,90.2,17.1,96.7c-8.6,3.6-21.5-16.1-29.6-11.8
		c-8.5,4.5-6.4,32.7,2,48c36.9,67.8,281.9,44.2,305.9-33.6c6.3-20.4-0.2-52.1-11.8-55.3c-11.2-3-21.9,21.7-30.3,19.1
		c-16-5-19.3-108.6,19.1-121.1c35.4-11.5,91.9,59.6,82.2,76.3c-5.8,10-33.8-2.1-41.4,9.9c-8.6,13.6,16.1,46.9,34.9,63.8
		c58.9,53.2,157.1,34.1,194,25v115.6H0V504.7z"/>
</g>
<g id="Layer_1">
	<path class="st7" d="M0,544.2c91,20,164.3,12.9,183.4-23.7c10.5-20,7.9-55.1-6.6-62.5c-13.9-7.1-30.4,15.6-42.8,9.9
		c-24.1-11.2-18.1-123.3,21.1-134.2c39.5-11,103.5,83.6,88.8,104.6c-7.9,11.3-37.1-1-41.4,8.6c-4.9,10.8,25.5,40.8,61.2,55.3
		c9.7,3.9,79.7,30.8,135.5-13.8c38.1-30.5,56.9-82.3,46.7-91.4c-5.1-4.5-14.6,3.8-20.4-0.7c-14.9-11.6,9.4-98.3,48-102
		c40.4-3.9,80.2,84.9,65.1,100.7c-10.2,10.7-42.4-15.1-55.9-2.6c-13.7,12.6-5.7,61.6,23.7,86.2c45.5,38,109.4-10.5,227.6,0.7
		c47,4.4,84.4,16.6,107.8,25.7v126.7H0V544.2z"/>
</g>
</svg>
