<?xml version="1.0" encoding="utf-8"?>
<!-- Generator: Adobe Illustrator 25.4.1, SVG Export Plug-In . SVG Version: 6.00 Build 0)  -->
<svg version="1.1" xmlns="http://www.w3.org/2000/svg" xmlns:xlink="http://www.w3.org/1999/xlink" x="0px" y="0px"
	 viewBox="0 0 841.9 595.3" style="enable-background:new 0 0 841.9 595.3;" xml:space="preserve">
<style type="text/css">
	.st0{fill:#140A15;}
	.st1{fill:#2D1328;}
	.st2{fill:#391831;}
	.st3{fill:#421D37;}
	.st4{fill:#4C223D;}
	.st5{fill:#5B2A47;}
	.st6{fill:#692F4E;}
	.st7{fill:#783757;}
	.st8{fill:#854060;}
	.st9{fill:#924966;}
	.st10{fill:#9E516D;}
	.st11{fill:#AD5C75;}
	.st12{fill:#C0657F;}
	.st13{fill:#D17188;}
	.st14{fill:#DD7C90;}
	.st15{fill:#EF8F9D;}
	.st16{fill:#F3A2AD;}
</style>
<g id="Layer_17">
	<rect class="st0" width="841.9" height="595.3"/>
</g>
<g id="Layer_16">
	<path class="st1" d="M220.3,0c-12,46-23.5,113.6-12.5,192.9c6.7,48.6,18.6,77.3,26.3,105.3c17.5,63.2,24.3,158.8-27.6,297.1H0V0
		H220.3z"/>
</g>
<g id="Layer_15">
	<path class="st2" d="M841.9,202.7c-131-0.3-218.9-17.3-276.2-33.6c-16.8-4.8-50.4-15-98-21.7c-26.3-3.7-75.4-8.9-151.3-3.3
		c-131.9,9.8-260,46-316.3,63.2V0h841.9V202.7z"/>
</g>
<g id="Layer_14">
	<path class="st3" d="M607.8,595.3c-54.2-176.7-45.3-237.1-19.7-253.1c8.6-5.4,19.4-5.9,27.6-17.1c21.1-28.5-9.1-79-22.4-116.4
		C578.1,165.8,571,99.6,611.1,0h230.8v595.3H607.8z"/>
</g>
<g id="Layer_13">
	<path class="st4" d="M0,390.2c61.9-28.9,140.8-51.7,226.2-36.2c52.1,9.5,61.9,25.1,119.7,35.5c90.3,16.2,145.8-7.7,231.6-21.1
		c61.2-9.5,150.4-15.6,264.4,3.9v222.8H0V390.2z"/>
</g>
<g id="Layer_12">
	<path class="st5" d="M186.1,0c-6,16.5-48.7,136.7-32.2,232.3c4.4,25.5,9.3,53.7,28.9,83.6c20.2,30.6,34,29.5,40.1,50
		c10.9,36.4-25.7,61.5-44.1,119.7c-7.7,24.4-14.1,60.6-5.9,109.6H0V0H186.1z"/>
</g>
<g id="Layer_11">
	<path class="st6" d="M841.9,148.1c-39.9,16.9-101.1,35.5-171,24.3c-71.4-11.4-75.5-41.7-152.3-63c-27.7-7.7-108-5.1-267.5,0.5
		c-56.8,2-91.7,3.4-140.1-7.2C62.7,92.1,24.9,74.7,0,61.3V0h841.9V148.1z"/>
</g>
<g id="Layer_10">
	<path class="st7" d="M580.1,595.3c93-167.4,89.4-251,67.1-296.5c-8-16.4-26.9-44.9-28.9-88.2c-2-41,12.8-59.7,19.7-111.2
		c3.3-24.4,5-58-1.3-99.4h205.2v595.3H580.1z"/>
</g>
<g id="Layer_9">
	<path class="st8" d="M0,423.8c52.3-20.4,131.2-43.6,226.8-41.4c162.2,3.6,231.3,77.2,371.1,69.7c59.6-3.2,144.1-21.8,244-94.1
		v237.3H0V423.8z"/>
</g>
<g id="Layer_8">
	<path class="st9" d="M146.6,0c-9.1,39.6-18.7,99.3-13.8,171.2c5.4,79.4,24.5,115.2,32.9,178.3c7.5,56.6,7,139.2-33.6,245.8H0V0
		H146.6z"/>
</g>
<g id="Layer_7">
	<path class="st10" d="M841.9,88.3c-127.9,40-223.8,37.7-288.7,27.6c-28.4-4.4-43.8-9.2-123-23c-115-20-172.5-30-192.8-26.3
		c-88,16.2-124.3,78.7-207.2,63.8C17,128,6.5,124.4,0,121.8V0h841.9V88.3z"/>
</g>
<g id="Layer_6">
	<path class="st11" d="M686.7,595.3C606,482,605.9,418.8,622.2,381.7c11.8-26.9,27.2-28.5,46.1-67.1c24.2-49.5,19-87.9,22.4-159.9
		c1.7-37.6,6.1-90.5,17.8-154.7h133.5v595.3H686.7z"/>
</g>
<g id="Layer_5">
	<path class="st12" d="M0,451.4c64.3,15,166.2,32.4,290.7,23.7c101.7-7.1,143.9-26.3,234.2-30.3c72.6-3.2,181,3.4,317,55.3v95.2H0
		V451.4z"/>
</g>
<g id="Layer_4">
	<path class="st13" d="M98.6,0C89.7,38.6,81,97.2,92,165.9c12.1,76,34.6,79.8,36.2,136.8c2.5,91.7-54.6,124-42.8,205.9
		c5.7,39.1,24,68.7,37.5,86.6H0V0H98.6z"/>
</g>
<g id="Layer_3">
	<path class="st14" d="M841.9,79.7C655.1,20.3,560.5,33.3,508.4,58.7c-17.8,8.6-75.9,40.8-137.5,23c-24-6.9-39.2-18.7-45.4-23
		C288,32.8,204.5,24.1,0,106V0h841.9V79.7z"/>
</g>
<g id="Layer_2">
	<path class="st15" d="M742.6,595.3C715,536.9,689.7,458,699.2,367.9c4.8-45.8,16-69.9,32.2-135.5C745.2,176.8,760.9,98.3,768.3,0
		h73.6v595.3H742.6z"/>
</g>
<g id="Layer_1">
	<path class="st16" d="M0,528.4c80.1-26.5,200.6-53.1,342-28.9c34,5.8,52.6,11.7,78.3,17.8c90.4,21.2,227.3,34.2,421.6-10.5v88.6H0
		V528.4z"/>
</g>
</svg>
