<?xml version="1.0" encoding="utf-8"?>
<!-- Generator: Adobe Illustrator 25.4.1, SVG Export Plug-In . SVG Version: 6.00 Build 0)  -->
<svg version="1.1" xmlns="http://www.w3.org/2000/svg" xmlns:xlink="http://www.w3.org/1999/xlink" x="0px" y="0px"
	 viewBox="0 0 841.9 595.3" style="enable-background:new 0 0 841.9 595.3;" xml:space="preserve">
<style type="text/css">
	.st0{fill:#CE6A6B;}
	.st1{fill:#EA8B8B;}
	.st2{fill:#9C4545;}
	.st3{fill:#853535;}
	.st4{fill:#702A2A;}
	.st5{fill:#571C1D;}
	.st6{fill:#3D1314;}
</style>
<g id="Layer_6">
	<rect class="st0" width="841.9" height="595.3"/>
</g>
<g id="Layer_7">
	<path class="st1" d="M123.6,127.7c-1.8,12.6-73.7,13.7-73.7,14.5c0,0.6,46.6-4.9,48.7,2.6c2.5,9.2-62.8,33-61.2,37.5
		c1.2,3.3,34.6-13.6,77.6-13.2c58.6,0.6,106.4,33.1,109.2,27.6c1.3-2.6-10.6-8.7-9.2-13.8c3.5-12.9,86,0.3,86.8-4.6
		c0.7-3.9-51.2-14.5-50.7-17.8c0.9-6,176.7,12.3,177,9.9c0.2-1.4-61.7-5.4-65.1-25c-1.9-10.9,15.1-20.5,11.8-26.3
		c-4.3-7.7-33.6,9.4-62.5-3.3c-10.2-4.5-18.2-11.8-17.1-15.1c1.1-3.4,10.8-0.7,17.1-7.2c3.4-3.5,5.7-9.6,3.9-12.5
		c-4.8-7.9-40.3,5.7-54.6,10.5C171.4,122,78.9,88,76.8,98.1C75.4,105.5,125,117.1,123.6,127.7z"/>
	<path class="st1" d="M660.4,256.7c-69.4-19.2-130.7-22.8-130.3-27c0.3-3.2,35.2-0.1,36.8-7.9c1.6-7.4-28.9-16.6-27.6-23
		c2.3-11.5,105,3.1,107.2-7.9c1.2-5.9-27.3-14.2-26.3-17.8c1.9-7,115.6,15.2,114.5,26.3c-0.6,5.9-33.6,3.8-34.9,11.8
		c-2.2,13.9,93.2,41.1,92.1,44.7c-0.7,2.4-43.3-11.2-48-2c-3.9,7.7,21.6,24.3,18.4,30.3C758.3,291.8,714.4,271.6,660.4,256.7z"/>
</g>
<g id="Layer_5">
	<path class="st2" d="M841.9,363.9c-14.6,0.3-38-0.3-65.7-6.6c-52.6-12-60.9-31-98.7-32.2c-42-1.4-48.4,21.5-83.6,15.1
		c-31.9-5.8-29.6-25.1-72.4-46.1c-50.6-24.8-89.2-15.1-97.4-38.2c-5-14,6.8-24.7-2-40.1c-7-12.4-17.3-10.3-26.3-23
		c-12.8-18.2-5.3-41.5-8.6-42.1c-5.7-1-12.4,74.8-52.6,94.7c-2.9,1.4-16,7.9-23,2.6c-8.1-6.1-2.3-23.2-5.3-24.3
		c-6.2-2.3-28.3,72.3-62.5,109.2C213,366.4,148.6,394.4,0,363.9v231.4h841.9V363.9z"/>
</g>
<g id="Layer_4">
	<path class="st3" d="M841.9,366.6c-6.4,2.7-16.1,6-28.2,6.6c-27.5,1.4-45.7-12.2-61.8-20.4c-63.8-32.4-121.7,5.7-140.1-24.3
		c-9.5-15.6-0.9-36.9-14.5-44.1c-8.9-4.7-17.2,1.9-25-3.9c-10.4-7.9-3-25.5-9.2-29.6c-11-7.3-45,40.6-92.8,72.4
		c-14.9,9.9-89.9,59.8-148.7,36.2c-50-20.1-68.5-85.5-90.1-78.3c-7.2,2.4-10,11.4-11.2,14.5c-9.4,25.1-57.9,54.7-220.3,78.3v221.5
		h841.9V366.6z"/>
</g>
<g id="Layer_3">
	<path class="st4" d="M841.9,440.9c-71.3,50.6-123,54.2-156.5,48.7c-68.4-11.2-86.1-64.4-162.5-70.4c-49.6-3.9-54.7,17.6-120.4,22.4
		c-73.3,5.4-108.2-18.3-169.1-29.6c-52.3-9.7-129.7-11.4-233.4,29.6v153.7h841.9V440.9z"/>
</g>
<g id="Layer_2">
	<path class="st5" d="M0,452.7c63.4,24.5,158.8,52,274.2,47.4c98.6-4,142.4-28.7,233.6-37.5c78-7.6,190.9-3.6,334.1,53.3v79.4H0
		V452.7z"/>
</g>
<g id="Layer_1">
	<path class="st6" d="M841.9,486.3c-82.7,30.8-202.7,59.8-334.8,28.3c-54.8-13.1-77.4-28.3-128.3-42.8
		C296.4,448.5,173.1,436.7,0,495.5v99.8h841.9V486.3z"/>
</g>
</svg>
