<?xml version="1.0" encoding="utf-8"?>
<!-- Generator: Adobe Illustrator 25.4.1, SVG Export Plug-In . SVG Version: 6.00 Build 0)  -->
<svg version="1.1" id="Layer_1" xmlns="http://www.w3.org/2000/svg" xmlns:xlink="http://www.w3.org/1999/xlink" x="0px" y="0px"
	 viewBox="0 0 799 1040" style="enable-background:new 0 0 799 1040;" xml:space="preserve">
<style type="text/css">
	.st0{fill:#191919;}
	.st1{fill:#161616;}
</style>
<g id="Body">
	<path class="st0" d="M680.6,1040H118.4C53,1040,0,995.2,0,940V665.5C0,499.5,159.3,365,355.7,365h87.6
		C639.8,365,799,499.5,799,665.5V940C799,995.2,746,1040,680.6,1040z"/>
</g>
<g id="Head">
	<path class="st1" d="M399.5,0L399.5,0c138.1,0,250,111.9,250,250l0,0c0,138.1-111.9,250-250,250l0,0c-138.1,0-250-111.9-250-250
		l0,0C149.5,111.9,261.4,0,399.5,0z"/>
</g>
</svg>
