<?xml version="1.0" encoding="utf-8"?>
<!-- Generator: Adobe Illustrator 25.4.1, SVG Export Plug-In . SVG Version: 6.00 Build 0)  -->
<svg version="1.1" xmlns="http://www.w3.org/2000/svg" xmlns:xlink="http://www.w3.org/1999/xlink" x="0px" y="0px"
	 viewBox="0 0 841.9 595.3" style="enable-background:new 0 0 841.9 595.3;" xml:space="preserve">
<style type="text/css">
	.st0{fill:#F7EDF6;}
	.st1{fill:#ECD7EA;}
	.st2{fill:#D8B9DA;}
	.st3{fill:#CCA6CE;}
	.st4{fill:#C396C4;}
	.st5{fill:#BB86BA;}
	.st6{fill:#B076B1;}
	.st7{fill:#AA69A9;}
	.st8{fill:#A45BA0;}
	.st9{fill:#A2529A;}
	.st10{fill:#9A4091;}
	.st11{fill:#662958;}
	.st12{fill:#4F2442;}
	.st13{fill:#3C1C31;}
</style>
<g id="Layer_14">
	<rect class="st0" width="841.9" height="597.3"/>
</g>
<g id="Layer_13">
	<path class="st1" d="M841.9,34.9c-71.4,30.2-128.5,34.2-167.1,32.5c-81.8-3.7-88.9-33.8-165-27.4c-33.1,2.8-62.6,11.1-152.9,20.4
		c0,0-13.4,1.4-26.1,2.5C236.8,71.5,57.2,57.5,0,52.7v542.5h841.9V34.9z"/>
</g>
<g id="Layer_12">
	<path class="st2" d="M0,126C153.7,59.6,249.8,70.9,310.4,96c30.5,12.6,40.6,24.1,80.9,35.7c117.6,33.9,228.2-6.7,235.7-9.6
		c51.7-19.7,62.3-37.9,109.6-43.3c43.3-4.9,80.4,5.1,105.3,14.6v501.8H0V126z"/>
</g>
<g id="Layer_11">
	<path class="st3" d="M0,179.5c68.7,10.2,172.9,19,299.6,2.5c39.4-5.1,30.1-6.1,71.3-11.5c172.4-22.6,236.9,7,373.9-20.4
		c20.6-4.1,55-11.9,97.1-26.8v471.8H0V179.5z"/>
</g>
<g id="Layer_10">
	<path class="st4" d="M841.9,226c-135.3-52.9-222-46-277.3-28c-19.7,6.4-52.4,19.7-103.2,27.4c-25.3,3.8-77.6,9.7-143.3,0.6
		C216.7,212,198.3,178.5,120,175.7c-51.2-1.8-93.3,10.7-120,21v398.6h841.9V226z"/>
</g>
<g id="Layer_9">
	<path class="st5" d="M0,248.9c133.9-18.8,234-23.2,300.9-23.6c11.3-0.1,21.3,0,22.9,0c126,0.7,212.6,12.9,249.7,16.6
		c60.8,6,149.7,5.2,268.4-27.4v380.8H0V248.9z"/>
</g>
<g id="Layer_8">
	<path class="st6" d="M841.9,266.7c-124.4,34-213,26.8-271.6,13.4c-29-6.7-60.6-17.1-111.5-19.7c-77.2-4-132.3,13.4-163.7,21
		c-62.4,15.1-157.5,21.9-295.1-21v334.9h841.9V266.7z"/>
</g>
<g id="Layer_7">
	<path class="st7" d="M0,338.7c48.6,2.2,121.6,0.2,206-24.8c36.6-10.8,31.5-13,59.2-20.4c108.2-28.7,150,14,273.9,2.5
		c62.5-5.8,56.6-17.1,119.7-21.7c76.3-5.5,140,7.1,183,19.1v301.8H0V338.7z"/>
</g>
<g id="Layer_6">
	<path class="st8" d="M0,341.9c50.4,16.2,125.3,34.9,216.8,36.9c93.2,2.1,160.4-14.1,203.8-22.9c95-19.3,233.9-35.6,421.3-19.1
		v258.5H0V341.9z"/>
</g>
<g id="Layer_5">
	<path class="st9" d="M0,371.2c42.1-13.7,105.3-29.3,182.4-29.3c73.1,0,75.3,14.2,165,21c103,7.9,194.3,14.8,287.3-24.8
		c27-11.5,50.3-25.4,88.5-26.8c49.7-1.8,91.1,18.5,118.7,36.3v247.6H0V371.2z"/>
</g>
<g id="Layer_4">
	<path class="st10" d="M0,379.5c84.5,11,178.7,18.8,281.1,20.4c92.4,1.4,135.5-5.2,219.1-6.4c80.8-1.2,197.6,1.9,341.6,22.9v178.8H0
		V379.5z"/>
</g>
<g id="Layer_2">
	<path class="st11" d="M0,449.8c59.5-18.9,150.7-40.3,260.8-33.8c108.1,6.4,155.5,35,254.1,46.5c75.2,8.7,185.7,8.2,327-40.8v164.8
		H0v-155"/>
</g>
<g id="Layer_3">
	<path class="st12" d="M0,442.3c153.7,49.8,269.1,48.6,347.3,37.5c59-8.4,101.2-23,184.2-21.7c52.2,0.8,101.3,7.5,199.6,21.1
		c46.5,6.4,84.7,12.3,110.7,16.4v101.7H0V442.3z"/>
</g>
<g id="Layer_1">
	<path class="st13" d="M841.9,528.6c-11.2,0.5-27.8,1.2-47.9,1.8c-78.5,2.3-218,6.4-373-14.5c-126-17-118.7-31.1-199.3-33.6
		C128.3,479.5,51.3,496.3,0,511.4v86h841.9V528.6z"/>
</g>
</svg>
