<?xml version="1.0" encoding="utf-8"?>
<!-- Generator: Adobe Illustrator 25.4.1, SVG Export Plug-In . SVG Version: 6.00 Build 0)  -->
<svg version="1.1" id="Layer_1" xmlns="http://www.w3.org/2000/svg" xmlns:xlink="http://www.w3.org/1999/xlink" x="0px" y="0px"
	 viewBox="0 0 50 50" style="enable-background:new 0 0 50 50;" xml:space="preserve">
<style type="text/css">
	.st0{fill:#562E77;}
	.st1{fill:#613885;}
	.st2{enable-background:new    ;}
	.st3{fill:#AA773F;}
	.st4{fill:#C18749;}
	.st5{fill:#D7994E;}
	.st6{fill:#371B4F;}
	.st7{fill:#D58CFD;}
	.st8{fill:#E3B7FD;}
	.st9{fill:#EED9F6;}
	.st10{fill:#D99AFD;}
	.st11{fill:#FFFFFF;}
	.st12{fill:#C68A4A;}
	.st13{fill:#A66BFB;}
	.st14{fill:#BB44FB;}
	.st15{fill:#9C39D1;}
</style>
<g>
	<g>
		<g>
			<g>
				<path class="st0" d="M22.5,37.1l0,1.2c0,0.2-0.1,0.4-0.4,0.6l-6,3.5c-0.5,0.3-1.4,0.3-1.9,0l-6-3.5c-0.3-0.2-0.4-0.4-0.4-0.6
					l0-1.2c0,0.2,0.1,0.4,0.4,0.6l6,3.5c0.5,0.3,1.4,0.3,1.9,0l6-3.5C22.3,37.5,22.5,37.3,22.5,37.1z"/>
				<path class="st1" d="M22.1,36.5c0.5,0.3,0.5,0.8,0,1.1l-6,3.5c-0.5,0.3-1.4,0.3-1.9,0l-6-3.5c-0.5-0.3-0.5-0.8,0-1.1l6-3.5
					c0.5-0.3,1.4-0.3,1.9,0L22.1,36.5z"/>
				<g>
					<path class="st0" d="M19.7,36.8c0.2,0.1,0.2,0.4,0,0.5l-4.2,2.4c-0.2,0.1-0.6,0.1-0.9,0l-4.2-2.4c-0.2-0.1-0.2-0.4,0-0.5
						l4.2-2.4c0.2-0.1,0.6-0.1,0.9,0L19.7,36.8z"/>
				</g>
			</g>
		</g>
	</g>
	<g>
		<g>
			<g class="st2">
				<g>
					<polygon class="st3" points="10.3,3.3 10.3,6.6 7.7,8.1 7.7,4.9 					"/>
				</g>
				<g>
					<polygon class="st4" points="7.7,4.9 7.7,8.1 5.1,6.6 5.1,3.3 					"/>
				</g>
				<g>
					<polygon class="st5" points="10.3,3.3 7.7,4.9 5.1,3.3 7.7,1.8 					"/>
				</g>
			</g>
		</g>
	</g>
	<g>
		<g>
			<g>
				<g>
					<polygon class="st1" points="14.7,25.9 14.7,26 15.1,25.8 13.6,23.9 14.6,23.8 14.6,23.8 14.7,23.8 15.1,23.6 13.5,21.7 
						14.6,21.6 14.6,21.6 14.7,21.7 15.1,21.5 13.5,19.6 14.6,19.4 14.6,19.4 14.7,19.5 15.1,19.3 13.5,17.4 14.6,17.3 14.6,17.2 
						14.7,17.3 15.1,17.1 13.5,15.2 14.6,15.1 14.6,15.1 14.7,15.1 15.1,14.9 13.5,13 14.6,12.9 14.7,12.9 14.7,13 15.1,12.8 
						13.4,10.7 13.1,10.9 14.5,12.8 13.4,12.9 13,13.1 13.3,13.1 13.1,13.2 14.5,14.9 13.4,15.1 13,15.3 13.3,15.3 13.1,15.3 
						14.5,17.1 13.4,17.3 13,17.5 13.3,17.4 13.1,17.5 14.5,19.3 13.4,19.4 13,19.6 13.2,19.6 13.1,19.7 14.5,21.5 13.4,21.6 
						13,21.8 13.2,21.8 13.1,21.9 14.5,23.6 13.4,23.8 13,24 13.1,24 13.1,24 14.5,25.8 13.4,25.9 13,26.2 13.3,26.1 13.1,26.2 
						14.5,28 13.4,28.1 13,28.3 13.3,28.3 13.1,28.4 14.5,30.1 13.4,30.3 13,30.5 13.3,30.5 13.1,30.6 14.5,32.3 13.4,32.5 13,32.7 
						13.2,32.6 13.1,32.7 14.5,34.5 13.4,34.6 13,34.9 13.2,34.8 13.1,34.9 14.5,36.7 13.4,36.8 13,37 14.6,36.8 14.6,36.8 
						14.7,36.9 15.1,36.7 13.5,34.8 14.6,34.7 14.6,34.6 14.7,34.7 15.1,34.5 13.5,32.6 14.6,32.5 14.6,32.5 14.7,32.5 15.1,32.3 
						13.5,30.4 14.6,30.3 14.6,30.3 14.7,30.4 15.1,30.1 13.5,28.3 14.6,28.1 14.6,28.1 14.7,28.2 15.1,28 13.5,26.1 14.6,25.9 
											"/>
					<polygon class="st1" points="16.9,34.9 16.6,34.8 16.8,34.9 15.4,36.7 16.5,36.8 16.9,37 15.3,36.8 15.3,36.8 15.2,36.9 
						14.8,36.7 16.4,34.8 15.3,34.7 15.3,34.6 15.2,34.7 14.8,34.5 16.4,32.6 15.3,32.5 15.3,32.5 15.2,32.5 14.8,32.3 16.4,30.4 
						15.3,30.3 15.2,30.3 15.2,30.4 14.8,30.1 16.3,28.3 15.3,28.1 15.2,28.1 15.2,28.2 14.8,28 16.3,26.1 15.3,25.9 15.2,25.9 
						15.2,26 14.8,25.8 16.3,23.9 15.3,23.8 15.3,23.8 15.2,23.8 14.8,23.6 16.4,21.7 15.3,21.6 15.3,21.6 15.2,21.7 14.8,21.5 
						16.4,19.6 15.3,19.4 15.3,19.4 15.2,19.5 14.8,19.3 16.4,17.4 15.3,17.3 15.2,17.2 15.2,17.3 14.8,17.1 16.3,15.2 15.3,15.1 
						15.2,15.1 15.2,15.1 14.8,14.9 16.3,13 15.3,12.9 15.2,12.9 15.2,13 14.8,12.8 16.4,10.7 16.8,11 15.3,12.8 16.5,12.9 
						16.9,13.1 16.6,13.1 16.8,13.2 15.3,14.9 16.5,15.1 16.9,15.3 16.6,15.3 16.8,15.3 15.4,17.1 16.5,17.3 16.9,17.5 16.6,17.4 
						16.8,17.5 15.4,19.3 16.5,19.4 16.9,19.6 16.6,19.6 16.8,19.7 15.4,21.5 16.5,21.6 16.9,21.8 16.6,21.8 16.8,21.9 15.4,23.6 
						16.5,23.8 16.9,24 16.8,24 16.8,24 15.3,25.8 16.5,25.9 16.9,26.2 16.6,26.1 16.8,26.2 15.3,28 16.5,28.1 16.9,28.3 16.6,28.3 
						16.8,28.4 15.4,30.1 16.5,30.3 16.9,30.5 16.6,30.5 16.8,30.6 15.4,32.3 16.5,32.5 16.9,32.7 16.6,32.6 16.8,32.7 15.4,34.5 
						16.5,34.6 					"/>
					<g>
						<g>
							<g>
								<g class="st2">
									<g>
										<polygon class="st6" points="14.7,26 13.1,26.2 14.7,28.2 13.1,28.4 14.7,30.4 13.1,30.6 14.7,32.5 13.1,32.7 14.7,34.7 
											13.1,34.9 14.7,36.9 13,37.1 13,37 14.6,36.8 13,34.9 14.6,34.7 13,32.7 14.6,32.5 13,30.5 14.6,30.3 13,28.3 14.6,28.1 
											13,26.2 14.6,25.9 13.1,24 13,24.1 13,24 14.6,23.8 13,21.8 14.6,21.6 13,19.6 14.6,19.4 13,17.5 14.6,17.3 13,15.3 
											14.6,15.1 13,13.1 14.6,12.9 13,11 13.1,11 14.7,13 13.1,13.2 14.7,15.1 13.1,15.3 14.7,17.3 13.1,17.5 14.7,19.5 
											13.1,19.7 14.7,21.7 13.1,21.9 14.7,23.8 13.1,24 										"/>
									</g>
								</g>
							</g>
						</g>
						<g>
							<g>
								<g class="st2">
									<g>
										<polygon class="st6" points="16.9,34.9 15.3,36.8 16.9,37 16.9,37.1 15.2,36.9 16.8,34.9 15.2,34.7 16.8,32.7 15.2,32.5 
											16.8,30.6 15.2,30.4 16.8,28.4 15.2,28.2 16.8,26.2 15.2,26 16.8,24 15.2,23.8 16.8,21.9 15.2,21.7 16.8,19.7 15.2,19.5 
											16.8,17.5 15.2,17.3 16.8,15.3 15.2,15.1 16.8,13.2 15.2,13 16.8,11 16.8,11 15.3,12.9 16.9,13.1 15.3,15.1 16.9,15.3 
											15.3,17.3 16.9,17.5 15.3,19.4 16.9,19.6 15.3,21.6 16.9,21.8 15.3,23.8 16.9,24 16.9,24.1 16.8,24 15.3,25.9 16.9,26.2 
											15.3,28.1 16.9,28.3 15.3,30.3 16.9,30.5 15.3,32.5 16.9,32.7 15.3,34.7 										"/>
									</g>
								</g>
							</g>
						</g>
					</g>
					<g>
						<g>
							<g>
								<g class="st2">
									<g>
										<polygon class="st1" points="14.6,23.6 14.9,23.5 15.2,23.6 14.9,23.8 										"/>
									</g>
								</g>
							</g>
							<g>
								<g class="st2">
									<g>
										<polygon class="st1" points="16.5,22.8 16.8,22.6 17.1,22.8 16.8,22.9 										"/>
									</g>
									<g>
										<polygon class="st0" points="16.8,24.3 16.8,37.7 16.5,37.6 16.5,24.1 										"/>
									</g>
								</g>
							</g>
							<g>
								<g class="st2">
									<g>
										<polygon class="st1" points="13.4,22.8 13.1,22.6 12.8,22.8 13.1,22.9 										"/>
									</g>
								</g>
							</g>
						</g>
					</g>
					<g>
						<g>
							<g class="st2">
								<g>
									<polygon class="st6" points="15.3,10.6 15.3,38.6 14.9,38.8 14.9,10.7 									"/>
								</g>
								<g>
									<polygon class="st1" points="14.6,10.6 14.9,10.5 15.2,10.6 14.9,10.7 									"/>
								</g>
								<g>
									<polygon class="st0" points="14.9,10.7 14.9,38.8 14.6,38.6 14.6,10.6 									"/>
								</g>
							</g>
						</g>
						<g>
							<g class="st2">
								<g>
									<polygon class="st6" points="17.1,9.7 17.1,37.6 16.8,37.7 16.8,9.9 									"/>
								</g>
								<g>
									<polygon class="st1" points="16.5,9.7 16.8,9.6 17.1,9.7 16.8,9.9 									"/>
								</g>
								<g>
									<polygon class="st0" points="16.8,9.9 16.8,24.3 16.5,24.1 16.5,9.7 									"/>
								</g>
							</g>
						</g>
						<g>
							<g class="st2">
								<g>
									<polygon class="st6" points="13.1,9.9 13.1,37.7 12.8,37.6 12.8,9.7 									"/>
								</g>
								<g>
									<polygon class="st1" points="13.4,9.7 13.1,9.6 12.8,9.7 13.1,9.9 									"/>
								</g>
								<g>
									<polygon class="st0" points="13.4,9.7 13.4,37.6 13.1,37.7 13.1,9.9 									"/>
								</g>
							</g>
						</g>
					</g>
				</g>
			</g>
		</g>
		<g>
			<g>
				<g class="st2">
					<polygon class="st7" points="15,9.2 15,12 18.1,10.2 18.1,7.4 					"/>
					<g>
						<polygon class="st8" points="15,9.2 15,12 11.8,10.2 11.8,7.4 						"/>
					</g>
					<g>
						<polygon class="st9" points="18.1,7.4 15,9.2 11.8,7.4 14.9,5.5 						"/>
					</g>
				</g>
			</g>
		</g>
	</g>
	<g>
		<path class="st8" d="M23.1,15.2c0.1-0.1,0.3-0.1,0.5,0l21,12.1c0.4,0.2,0.7,0.7,0.7,1.2l0,17.4c0,0.2-0.1,0.4-0.2,0.4l-0.9,0.5
			c0.1-0.1,0.2-0.2,0.2-0.4l0-17.4c0-0.4-0.3-0.9-0.7-1.2l-21-12.1c-0.2-0.1-0.4-0.1-0.5,0L23.1,15.2z"/>
		<g>
			<path class="st10" d="M22.7,15.8c-0.4-0.2-0.7,0-0.7,0.4l0,17.4c0,0.4,0.3,0.9,0.7,1.2l21,12.1c0.4,0.2,0.7,0,0.7-0.4l0-17.4
				c0-0.4-0.3-0.9-0.7-1.2L22.7,15.8z"/>
		</g>
		<g>
			<g>
				<polygon class="st9" points="22.9,18.3 22.8,33.8 43.5,45.8 43.6,30.2 				"/>
			</g>
		</g>
		<g>
			<g>
				<path class="st11" d="M25.4,18.3c-0.2-0.1-0.3,0-0.3,0.2c0,0.2,0.2,0.5,0.3,0.6c0.2,0.1,0.3,0,0.3-0.2
					C25.8,18.7,25.6,18.4,25.4,18.3z"/>
			</g>
			<g>
				<path class="st11" d="M23.2,17c-0.2-0.1-0.3,0-0.3,0.2c0,0.2,0.2,0.5,0.3,0.6c0.2,0.1,0.3,0,0.3-0.2S23.4,17.1,23.2,17z"/>
			</g>
			<g>
				<path class="st11" d="M24.3,17.6c-0.2-0.1-0.3,0-0.3,0.2c0,0.2,0.2,0.5,0.3,0.6c0.2,0.1,0.3,0,0.3-0.2S24.5,17.8,24.3,17.6z"/>
			</g>
		</g>
	</g>
	<g>
		<g>
			<g>
				<g>
					<g class="st2">
						<g>
							<path class="st1" d="M32.6,25.2l0.3,0.1c0.2,0,0.3,0,0.4,0L33,25.3C32.9,25.2,32.8,25.2,32.6,25.2z"/>
							<polygon class="st1" points="32.5,26 32.5,23.7 32.8,23.5 32.6,23.3 32.2,23.5 32.2,25.9 							"/>
						</g>
					</g>
				</g>
				<g>
					<path class="st9" d="M33.1,26.2c0-0.1-0.1-0.2-0.1-0.3l-0.3-0.1c0.1,0,0.1,0.1,0.1,0.3c0,0.2-0.1,0.4-0.2,0.6
						c0.1,0.1,0.1,0.1,0.2,0.2C33,26.6,33.1,26.4,33.1,26.2z"/>
				</g>
				<g>
					<path class="st6" d="M33.5,25.9c0-0.5-0.3-0.7-0.6-0.6l0-1.9l-0.4,0.2l0,2.3l0.2-0.1c0.3-0.1,0.5,0,0.5,0.3
						c0,0.2-0.1,0.5-0.3,0.6c0.1,0.1,0.1,0.2,0.1,0.3C33.3,26.8,33.5,26.3,33.5,25.9z"/>
				</g>
			</g>
			<g>
				<g class="st2">
					<g>
						<path class="st9" d="M33.2,27.4l-0.3,0.2c-0.1,0-0.2,0-0.3,0c-0.2-0.1-0.4-0.5-0.4-0.8c0-0.1,0-0.2,0.1-0.3l0.3-0.2
							c-0.1,0-0.1,0.1-0.1,0.3c0,0.3,0.2,0.6,0.4,0.8C33,27.4,33.1,27.4,33.2,27.4z"/>
						<path class="st12" d="M39.1,30.1l0,4.2c0,0.2-0.1,0.4-0.2,0.4l-0.3,0.2c0.1-0.1,0.2-0.2,0.2-0.4l0-4.2c0-0.4-0.3-0.9-0.7-1.2
							L27,22.7c-0.2-0.1-0.4-0.1-0.5,0l0.3-0.2c0.1-0.1,0.3-0.1,0.5,0l11.1,6.4C38.8,29.1,39.1,29.7,39.1,30.1z"/>
					</g>
					<g>
						<path class="st5" d="M38.1,29.1c0.4,0.2,0.7,0.7,0.7,1.2l0,4.2c0,0.4-0.3,0.6-0.7,0.4L27,28.4c-0.4-0.2-0.7-0.7-0.7-1.2l0-4.2
							c0-0.4,0.3-0.6,0.7-0.4L38.1,29.1z M32.5,27.5c0.2,0.1,0.4,0,0.4-0.3c0-0.3-0.2-0.6-0.4-0.8c-0.2-0.1-0.4,0-0.4,0.2
							C32.1,27,32.3,27.4,32.5,27.5"/>
					</g>
				</g>
			</g>
			<path class="st1" d="M32.6,26.6c-0.1,0.1-0.1,0.2-0.2,0.2c-0.1,0-0.1,0.1-0.2,0.1l0,0L32,26.7l-0.4,0.4c0,0.1,0.1,0.2,0.2,0.2
				l0.3,0.1c-0.1,0-0.1-0.1-0.2-0.2l0.3-0.3l0.1,0.1c0.1,0,0.2,0,0.3,0c0.1,0,0.1-0.1,0.2-0.1C32.8,26.7,32.7,26.6,32.6,26.6z"/>
			<path class="st6" d="M32.7,26.9c-0.2,0.1-0.4,0.1-0.4-0.1l-0.4,0.4c0.1,0.3,0.4,0.4,0.8,0.2c0.1-0.1,0.2-0.1,0.3-0.2
				c0-0.1-0.1-0.2-0.1-0.3C32.8,26.9,32.7,26.9,32.7,26.9z"/>
		</g>
		<g>
			<g>
				<polygon class="st11" points="27.2,25.4 27.2,27.9 38.1,34.1 38.1,31.7 				"/>
			</g>
		</g>
		<g>
			<g>
				<g>
					<path class="st11" d="M37.8,29.9c-0.2-0.1-0.3,0-0.3,0.2s0.1,0.4,0.3,0.5c0.2,0.1,0.3,0,0.3-0.2S38,30,37.8,29.9z"/>
				</g>
				<g>
					<path class="st11" d="M35.9,28.8c-0.2-0.1-0.3,0-0.3,0.2s0.1,0.4,0.3,0.5c0.2,0.1,0.3,0,0.3-0.2C36.2,29.1,36,28.9,35.9,28.8z"
						/>
				</g>
				<g>
					<path class="st11" d="M36.8,29.4c-0.2-0.1-0.3,0-0.3,0.2s0.1,0.4,0.3,0.5s0.3,0,0.3-0.2S37,29.5,36.8,29.4z"/>
				</g>
			</g>
		</g>
	</g>
	<g>
		<g>
			<g>
				<g>
					<g>
						<g>
							<g class="st2">
								<g>
									<polygon class="st6" points="33.7,23 34.4,22.6 33.5,24.3 32.8,24.7 									"/>
								</g>
								<g>
									<polygon class="st6" points="33.1,21.6 33.8,21.1 34.4,22.6 33.7,23 									"/>
								</g>
								<g>
									<polygon class="st1" points="31.5,20.7 32.2,20.2 33.8,21.1 33.1,21.6 									"/>
								</g>
								<g>
									<polygon class="st0" points="33.1,21.6 33.7,23 32.8,24.7 31.8,24.1 30.9,21.4 31.5,20.7 									"/>
								</g>
							</g>
						</g>
					</g>
					<g>
						<g class="st2">
							<path class="st0" d="M32.9,18.2C32.9,18.2,32.9,18.2,32.9,18.2v2.7c0,0,0,0.1-0.1,0.1c-0.1,0.1-0.3,0.1-0.4,0
								c-0.1,0-0.1-0.1-0.1-0.1v-2.7c0,0,0-0.1,0.1-0.1C32.6,18,32.8,18,32.9,18.2C32.9,18.1,32.9,18.2,32.9,18.2z"/>
						</g>
					</g>
				</g>
			</g>
		</g>
	</g>
	<g>
		<g>
			<polygon class="st6" points="32.9,17.8 33.8,17.3 33.8,18.2 32.9,18.7 			"/>
		</g>
		<g>
			<polygon class="st1" points="4.7,1.5 5.6,1 33.8,17.3 32.9,17.8 			"/>
		</g>
		<g>
			<polygon class="st0" points="32.9,17.8 32.9,18.7 4.7,2.5 4.7,1.5 			"/>
		</g>
	</g>
	<g>
		<g>
			<g class="st2">
				<g>
					<path class="st4" d="M27.2,43.7v1.1c0,0.1-0.1,0.2-0.2,0.3l-3.4,2c-0.3,0.2-0.7,0.2-1,0l-3.4-2c-0.1-0.1-0.2-0.2-0.2-0.3l0-1.1
						c0,0.1,0.1,0.2,0.2,0.3l3.4,2c0.3,0.2,0.7,0.2,1,0l3.4-2C27.1,43.9,27.2,43.8,27.2,43.7z"/>
				</g>
				<g>
					<path class="st5" d="M27,43.4c0.3,0.2,0.3,0.4,0,0.6l-3.4,2c-0.3,0.2-0.7,0.2-1,0l-3.4-2c-0.3-0.2-0.3-0.4,0-0.6l3.4-2
						c0.3-0.2,0.7-0.2,1,0L27,43.4z"/>
				</g>
			</g>
		</g>
	</g>
	<g>
		<g>
			<g class="st2">
				<g>
					<path class="st7" d="M36.7,45.5v1.1c0,0.1-0.1,0.2-0.2,0.3l-3.4,2c-0.3,0.2-0.7,0.2-1,0l-3.4-2c-0.1-0.1-0.2-0.2-0.2-0.3l0-1.1
						c0,0.1,0.1,0.2,0.2,0.3l3.4,2c0.3,0.2,0.7,0.2,1,0l3.4-2C36.6,45.7,36.7,45.6,36.7,45.5z"/>
				</g>
				<g>
					<path class="st8" d="M36.5,45.2c0.3,0.2,0.3,0.4,0,0.6l-3.4,2c-0.3,0.2-0.7,0.2-1,0l-3.4-2c-0.3-0.2-0.3-0.4,0-0.6l3.4-2
						c0.3-0.2,0.7-0.2,1,0L36.5,45.2z"/>
				</g>
			</g>
		</g>
	</g>
	<g>
		<path class="st13" d="M27.8,30.8L25,29.2c-0.4-0.2-0.8,0.1-0.8,0.5l0,2.8c0,0.4,0.2,0.7,0.5,0.9l2.8,1.6c0.4,0.2,0.8-0.1,0.8-0.5
			l0-2.8C28.4,31.4,28.2,31,27.8,30.8z"/>
		<path class="st14" d="M34.1,34.5l-2.8-1.6c-0.4-0.2-0.8,0.1-0.8,0.5l0,2.8c0,0.4,0.2,0.7,0.5,0.9l2.8,1.6c0.4,0.2,0.8-0.1,0.8-0.5
			l0-2.8C34.7,35,34.5,34.7,34.1,34.5z"/>
		<path class="st15" d="M40.4,38.1l-2.8-1.6c-0.4-0.2-0.8,0.1-0.8,0.5l0,2.8c0,0.4,0.2,0.7,0.5,0.9l2.8,1.6c0.4,0.2,0.8-0.1,0.8-0.5
			l0-2.8C41,38.7,40.8,38.3,40.4,38.1z"/>
	</g>
</g>
</svg>
