<?xml version="1.0" encoding="utf-8"?>
<!-- Generator: Adobe Illustrator 25.4.1, SVG Export Plug-In . SVG Version: 6.00 Build 0)  -->
<svg version="1.1" id="Layer_1" xmlns="http://www.w3.org/2000/svg" xmlns:xlink="http://www.w3.org/1999/xlink" x="0px" y="0px"
	 viewBox="0 0 50 50" style="enable-background:new 0 0 50 50;" xml:space="preserve">
<style type="text/css">
	.st0{fill:#8E44FB;}
	.st1{fill:#C55DFB;}
	.st2{opacity:0.3;}
	.st3{fill:#513885;}
	.st4{fill:#D2B7FD;}
	.st5{fill:#E99842;}
</style>
<g>
	<g>
		<g>
			<circle class="st0" cx="26.4" cy="25" r="18"/>
			<path class="st1" d="M36.2,9.9c-0.4,0-0.5,0.3-0.4,1.2c-0.6-0.1-1.2,0.4-1.8,0.1c0,0-0.1,0-0.1,0c-0.6,0.1-0.6,0.1-0.5-0.6
				c0-0.1,0.1-0.2,0.1-0.3c0-0.1,0-0.3,0-0.4l-0.1,0c-0.1,0.4-0.4,0.8-0.3,1.3c0,0.1-0.1,0.2-0.2,0.2c-0.4,0-0.8,0.2-0.9,0.7
				c0,0-0.1,0.1-0.1,0.1c-0.3,0-0.5,0.2-0.6,0.6c0,0.1-0.2,0.1-0.2,0.2c-0.1,0-0.2,0.1-0.3,0.2c-0.1,0-0.2,0.1-0.3,0.1
				c-0.1,0.1-0.2,0.1-0.3,0.2c0.1,0.1,0.1,0.2,0.2,0.3c0.2,0.1,0.4,0.2,0.5,0.4c0.2,0.2,0.2,0.8,0,1c-0.1,0.1-0.4,0-0.5-0.1
				c-0.3,0-0.6-0.2-0.8-0.2c-0.3,0-0.5,0.3-0.4,0.6c0.1,0.2,0.1,0.4,0,0.6c-0.2,0.3-0.1,0.9,0.1,1c0.3,0.1,0.6,0.2,0.8,0.2
				c0.2,0.1,0.5,0,0.6-0.3c0.3-0.6,0.7-1.1,1.3-1.4c0.1,0,0.1-0.1,0.2-0.1c-0.1-0.2-0.2-0.3-0.3-0.4c0.2,0,0.3,0,0.5,0.1
				c0.3,0.1,0.5,0.2,0.7-0.2c0.1-0.2,0.2-0.2,0.3,0c0,0.1,0.1,0.2,0.1,0.3c0.1,0.5,0.4,0.6,0.7,0.8c0.1,0.1,0.3,0.2,0.4,0.4
				c0,0.1,0,0.4,0,0.5c-0.1,0.1-0.2,0.1-0.4,0.1l-0.2,0c0,0,0,0.1,0,0.1c0.1,0.1,0.2,0.3,0.3,0.2c0.3,0,0.5-0.5,0.5-1.1
				c0.1,0,0.2,0.1,0.3,0.1c0,0,0-0.1,0.1-0.1c-0.2-0.2-0.5-0.4-0.7-0.6c-0.3-0.3-0.6-0.4-0.6-0.9c0-0.1-0.1-0.4,0.1-0.4
				c0.2,0,0.4,0,0.4,0.3c0,0.5,0.3,0.7,0.6,0.8c0.1,0.1,0.3,0.1,0.4,0.2c0.1,0.1,0.2,0.3,0.1,0.3c-0.1,0.3-0.1,0.5,0.1,0.7
				c0.1,0.1,0.1,0.2,0.1,0.3c0.1,0.1,0.1,0.3,0.1,0.4c0.1-0.1,0.2-0.2,0.3-0.3c0,0,0.1-0.1,0.1-0.1c0.2-0.2,0.2-0.3,0-0.4
				c-0.1-0.1-0.2-0.2-0.3-0.3c0.3-0.2,0.5-0.2,0.8-0.1c0.2,0,0.4,0,0.6-0.1c0.1,0,0-0.4,0-0.5c0-0.2-0.1-0.4,0-0.5
				c0.1-0.2,0.2-0.4,0.4-0.6c0.1-0.2,0.3-0.3,0.4-0.3c0.2,0.1,0.3,0.3,0.4,0.5c0.1,0.1,0.1,0.3,0.3,0.3c0.1,0,0.3-0.1,0.4-0.1
				c0-0.1,0-0.1,0-0.1c-0.2-0.1-0.3-0.1-0.5-0.2l0-0.1c0.4-0.1,0.8-0.2,1.3-0.4c-0.1,0.2-0.2,0.3-0.3,0.5c-0.2,0.3-0.2,0.4,0,0.6
				c0.2,0.1,0.3,0.2,0.5,0.4c0.1,0.1,0.1,0.4,0.1,0.5c0,0.1-0.2,0.2-0.4,0.2c-0.2,0-0.4-0.1-0.6-0.2c-0.4-0.3-0.8-0.3-1.2,0
				c-0.3,0.1-0.6,0.3-0.9,0.4c-0.1,0.1-0.2,0.1-0.2,0.2c0.1,0.3,0.2,0.7,0.3,1c0,0.1,0.3,0.2,0.4,0.1c0.2-0.2,0.3-0.1,0.5,0
				c0.2,0.2,0.4,0.3,0.6,0.1c0.1-0.1,0.1-0.1,0.1-0.1c0.1,0.2,0.2,0.4,0.3,0.6c0.2,0.2,0.2,0.3-0.1,0.5c-0.1,0.1-0.3,0.3-0.3,0.5
				c0,0.3-0.1,0.3-0.3,0.3c-0.3-0.1-0.6-0.1-0.8-0.1c-0.7,0.1-1.3-0.1-1.9-0.5c-0.1-0.1-0.3-0.2-0.4-0.1c-0.1,0.1-0.1,0.3-0.1,0.5
				c0,0.4,0,0.5-0.3,0.3c-0.4-0.2-0.8-0.5-1.1-0.7c-0.4-0.2-0.6-0.5-0.4-1c0.1-0.3-0.1-0.5-0.4-0.5c-0.2,0-0.4,0.1-0.5,0
				c-0.6-0.2-1.1-0.1-1.7,0.2c-0.3,0.2-0.6,0.3-1,0.1c0,0-0.2,0.1-0.3,0.2c-0.2,0.2-0.4,0.4-0.5,0.6c-0.1,0.2-0.3,0.4-0.2,0.6
				c0,0.4-0.1,0.7-0.4,0.9c-0.5,0.3-0.8,0.8-1,1.3c-0.1,0.1-0.1,0.3-0.2,0.4c-0.2,0.3-0.2,0.6-0.1,0.9c0.1,0.4,0.1,0.8,0,1.2
				c-0.1,0.2-0.1,0.6,0,0.8c0.2,0.4,0.5,0.9,0.6,1.4c0,0.1,0,0.1,0.1,0.2c0.3,0.3,0.6,0.6,0.9,0.9c0.2,0.2,0.5,0.4,0.8,0.2
				c0.3-0.2,0.7-0.2,1.1-0.3c0.2,0,0.3,0,0.4-0.1c0.3-0.2,0.6-0.1,0.9,0.1c0.2,0.2,0.3,0.5,0.6,0.3c0,0,0.1,0,0.1,0.1
				c0.3,0.2,0.4,0.7,0.2,1.1c-0.2,0.4-0.2,0.7,0,1c0.3,0.3,0.5,0.6,0.5,1c0,0.1,0.1,0.3,0.1,0.4c0.3,0.7,0.3,1.4-0.1,2.1
				c-0.3,0.5-0.3,1-0.1,1.6c0.2,0.6,0.4,1.1,0.4,1.7c0,0.5,0.1,0.9,0.3,1.3c0.2,0.4,0.4,0.9,0.3,1.4c0,0.4,0.1,0.5,0.4,0.4
				c0.5,0,0.9-0.1,1.3-0.2c0.1,0,0.2-0.1,0.2-0.1c0.7-0.6,1.2-1.2,1.3-2.2c0-0.3,0.2-0.4,0.4-0.4c0.1-0.1,0.2-0.2,0.3-0.3
				c0.1-0.3,0.1-0.5-0.1-0.8c0-0.1-0.1-0.4,0-0.5c0.2-0.3,0.4-0.5,0.7-0.7c0.6-0.4,0.9-1.4,0.7-2.1c-0.1-0.4-0.2-0.9-0.3-1.3
				c-0.2-0.7,0.2-1.2,0.7-1.6c0.4-0.3,0.7-0.6,1-1c0.4-0.6,0.8-1.4,1.2-2c0.1-0.2,0.1-0.4,0.2-0.6c-0.2,0-0.4,0-0.5,0
				c-0.4,0-0.7,0.2-1,0.2c-0.1,0-0.2-0.1-0.3-0.2c-0.2-0.3-0.4-0.7-0.6-1.1c0-0.1-0.1-0.2-0.2-0.3c-0.1-0.3-0.2-0.6-0.3-0.9
				c-0.2-0.6-0.3-1.1-0.5-1.7c-0.1-0.2-0.1-0.5-0.2-0.7c-0.1-0.2-0.2-0.5-0.3-0.7c0.1,0,0.2,0,0.2,0.1c0.3,0.5,0.6,1,0.9,1.5
				c0.1,0.1,0,0.2,0,0.3c0.1,0.2,0.1,0.3,0.1,0.5c0.3,0.7,0.8,1.4,0.8,2.3c0,0.2,0.1,0.3,0.4,0.2c0.2-0.1,0.4-0.1,0.6-0.2
				c0.3-0.1,0.6-0.3,0.9-0.5c0.3-0.2,0.6-0.4,0.9-0.6c0.4-0.3,0.7-0.7,0.8-1.2c0-0.1-0.1-0.4-0.1-0.5c-0.1-0.1-0.2-0.2-0.3-0.3
				c-0.2-0.2-0.4-0.3-0.6,0c-0.2,0.2-0.5,0.2-0.7-0.1c0-0.1-0.1-0.1-0.1-0.1c-0.1-0.1-0.2-0.2-0.1-0.3c0.1-0.3,0-0.5-0.2-0.8
				c-0.1-0.1-0.2-0.2-0.2-0.3c0-0.1,0-0.3,0-0.4c0.1-0.1,0.2-0.1,0.3,0c0.3,0.1,0.4,0.3,0.5,0.6c0.2,0.6,0.4,0.7,0.9,0.6
				c0.1,0,0.2,0,0.3,0.1c0.1,0.2,0.3,0.4,0.5,0.5C43,16.6,40.2,12.5,36.2,9.9z"/>
			<g>
				<path class="st1" d="M9.5,26.6c0.4,0,0.6,0.1,0.8,0.5c0,0.1,0.1,0.1,0.2,0.2c0.1,0,0.2,0,0.2,0.1c0.2,0.2,0.5,0.1,0.7,0.2
					c0.1-0.1,0.1-0.2,0.2-0.3c0.4,0.3,0.6,0.7,0.6,1.1c-0.1,0.3-0.1,0.7-0.2,1c0,0.1,0.1,0.2,0.1,0.4c0,0,0.1,0.1,0,0.2
					c-0.1,0.3,0,0.5,0.3,0.6c0.5,0.2,0.9,0.6,1.2,1c0.2,0.3,0.5,0.6,1,0.6c0.5,0,0.7,0.2,0.9,0.6c0.1,0.3,0.2,0.6,0.3,0.9
					c0.2,0.4,0.3,0.8,0.5,1.2c0.2,0.3,0.3,0.6,0.4,0.9c0.1,0.5,0.3,0.9,0.6,1.4c0,0.1,0.2,0.2,0.3,0.2c0.1,0,0.1,0.1,0.1,0.2
					c0.1,0.2,0.2,0.3,0.3,0.5c0.1,0.2,0.3,0.4-0.1,0.5c0.3,0,0.5,0.1,0.5,0.4c0,0,0,0,0,0.1c0.3,0.2,0.3,0.3,0.1,0.5
					c0.3,0.2,0.5,0.3,0.8,0.5c0.2,0.2,0.5,0.2,0.8,0.2c0.2,0,0.5,0,0.5-0.3c0,0,0.1-0.1,0.1-0.1c0.1-0.1,0.1-0.1,0.2-0.1
					c-0.2,0-0.2,0.1-0.4,0.1c-0.1,0-0.2,0-0.3,0c-0.3-0.2-0.5-0.4-0.7-0.6c0,0,0-0.1,0-0.1c0-0.2,0.1-0.4,0.2-0.6
					c0.1-0.2-0.1-0.3-0.3-0.3c-0.2,0-0.4-0.1-0.6-0.2c0.1,0,0.1-0.1,0.1-0.1c0.3-0.3,0.3-0.5,0.1-0.8c0-0.1,0-0.2,0-0.2
					c0.2-0.2,0.1-0.3-0.1-0.5c0,0-0.1-0.1-0.1-0.2c0.4-0.1,0.7-0.1,0.7-0.4c0-0.3,0-0.5-0.5-0.7c0.3-0.1,0.5-0.1,0.8-0.2
					c-0.2-0.2-0.2-0.3,0-0.4c0.1-0.1,0.1-0.1,0.1-0.2c0.2-0.4,0-0.7-0.2-1.1c-0.1-0.2-0.1-0.3,0.1-0.5c0.2-0.2,0.4-0.3,0.6-0.5
					c0.1-0.1,0.1-0.3,0.1-0.4c0-0.2,0-0.4,0-0.5c0.1-0.2,0.1-0.4,0-0.6c-0.4-0.4-0.3-0.8-0.1-1.2c0-0.1,0.1-0.2,0.1-0.3
					c0.1-0.2,0-0.5-0.2-0.6c-0.5-0.3-1-0.4-1.5-0.4c-0.3,0-0.6,0-0.9-0.1c-0.2-0.1-0.5-0.2-0.8,0c0-0.4-0.1-0.7-0.4-0.9
					c-0.1-0.1-0.3-0.1-0.3-0.1c-0.6,0.2-1.1-0.1-1.6-0.3c0,0-0.1-0.1-0.1-0.1c-0.2-0.3-0.3-0.3-0.5-0.1c-0.3,0.2-0.6,0.1-0.8,0
					c-0.1,0-0.3-0.1-0.4-0.1c0,0.1,0.1,0.3,0.1,0.4c0,0,0,0,0,0.1c-0.1,0-0.1,0-0.2,0c-0.1-0.2-0.1-0.4-0.2-0.6
					c-0.3,0.3-0.7,0.5-0.7,1c-0.4-0.3-0.4-0.3-0.8,0c-0.1,0.1-0.2,0-0.4-0.1c-0.3-0.3-0.4-0.6-0.4-1c-0.1-0.4-0.1-0.4-0.5-0.3
					c-0.1,0-0.1,0-0.1,0c-0.1,0-0.2,0-0.3,0c0-0.1,0-0.2,0-0.3c0-0.3,0-0.6,0.1-1c-0.4,0-0.5,0.1-0.6,0.5c0,0.1,0,0.2-0.1,0.3
					c-0.2,0.1-0.3,0.2-0.5,0.2c0,0.1,0,0.3,0,0.4c0.2,0,0.4,0.1,0.6,0.2C9.1,26.5,9.3,26.6,9.5,26.6z"/>
			</g>
			<g class="st2">
				<path class="st3" d="M36.4,10c2.9,3.2,4.7,7.4,4.7,12.1c0,9.9-8.1,18-18,18c-3.7,0-7.1-1.1-10-3c3.3,3.6,8,5.9,13.3,5.9
					c9.9,0,18-8.1,18-18C44.4,18.8,41.2,13.3,36.4,10z"/>
			</g>
			<g>
				<path class="st1" d="M8.5,23.2c0.3-0.5,0.4-0.5,1-0.2c0.1,0,0.2,0,0.3,0c0.2-0.1,0.2,0,0.2,0.1c0,0.1,0,0.2,0.1,0.2
					c0.1,0.3,0.3,0.5,0.6,0.5c-0.1-0.3-0.2-0.5-0.3-0.7c0-0.1-0.1-0.2-0.1-0.3c0-0.4,0.2-0.7,0.5-0.9c0.3-0.2,0.3-0.5,0.2-0.8
					c0-0.1-0.1-0.2-0.1-0.3c0.1-0.1,0.2-0.1,0.2-0.2c0.3-0.3,0.6-0.5,0.8-0.8c0.2-0.3,0.4-0.4,0.7-0.6c0,0.1,0.1,0.2,0.1,0.3
					c0.1,0,0.2,0,0.3,0c0.3-0.1,0.5-0.3,0.8-0.5c0.1-0.1,0.2-0.2,0-0.4c0,0-0.1,0-0.1,0.1c-0.4,0.3-0.5,0.2-0.7-0.1
					c0-0.1-0.1-0.1,0-0.2c0.1-0.3-0.1-0.4-0.5-0.5c0,0,0,0,0-0.1c0.3,0,0.5,0,0.8,0c0.2,0,0.5,0,0.8,0c0-0.1,0-0.2,0-0.2
					c0.3,0,0.6-0.1,0.8-0.3c0,0,0.4-0.7,0.2-0.7c0.4-0.1,0.8-0.1,1.2-0.2c0.1,0,0.3,0,0.4-0.2c0.1-0.1,0.1-0.2,0.1-0.3
					c0.1-0.6,0.1-1.1,0.2-1.7c0.1-0.2,0.2-0.3,0.3-0.5c0.1-0.2,0.2-0.3,0.5-0.3c0.2,0,0.4,0,0.6-0.2c0.2-0.2,0.5-0.3,0.8-0.4
					c0.4-0.1,0.8-0.2,1.2-0.4c0.1,0,0.2-0.1,0.2-0.1c0-0.2,0.2-0.2,0.4-0.2c0-0.2,0-0.5,0.1-0.7c0.1,0,0.1-0.1,0.2-0.2
					c0.2-0.1,0.4-0.3,0.4-0.5c0-0.2,0-0.4,0.4-0.4c-0.2-0.1-0.4-0.3-0.6-0.4c0.6-0.3,1.2-0.6,1.7-0.9c-0.2-0.2-1.2-0.2-1.6,0
					c-0.2,0.1-0.3,0.1-0.4,0c0.3-0.2,0.5-0.3,0.8-0.4c-0.4-0.2-0.8-0.4-1.2-0.5c0,0,0,0-0.1,0c-0.3,0-0.5,0-0.8-0.1
					c-0.4,0.2-0.9,0.4-1.4,0.6c-5.4,2.7-9.3,8-9.9,14.2C8.5,23.1,8.4,23.2,8.5,23.2L8.5,23.2L8.5,23.2z"/>
			</g>
		</g>
	</g>
	<g>
		<path class="st4" d="M43.2,18.6c0.1,0.4,0.3,0.7,0.4,1.1c5.8,2.5,4.9,6.1-2.7,8.3c-8.7,2.5-22.8,2.5-31.5,0
			c-8.7-2.5-8.8-6.8-0.1-9.2c0.1,0,0.2-0.1,0.3-0.1c0.1-0.3,0.2-0.6,0.4-0.9c-0.8,0.2-1.5,0.4-2.2,0.6c-9.5,2.7-9.5,7.1,0.1,9.9
			c9.6,2.7,25.1,2.7,34.6,0C51.5,25.5,51.8,21.3,43.2,18.6z"/>
	</g>
	<g>
		<path class="st4" d="M40.7,35.9c-0.1,0.1-0.1,0.2-0.2,0.3c1.1,4.2-2.2,5.3-8.4,2.2c-8-4.1-18.4-13.7-23.2-21.4
			c-4.7-7.7-1.8-10.8,6.3-6.7c0.2,0.1,0.3,0.2,0.5,0.3c0.2-0.2,0.5-0.3,0.7-0.5c-0.7-0.4-1.4-0.8-2-1.1C5.6,4.4,2.6,7.7,7.8,16.2
			c5.2,8.5,16.6,19,25.4,23.5c7.8,3.9,11,1.8,8.1-4.6C41.1,35.3,40.9,35.6,40.7,35.9z"/>
	</g>
	<g>
		<path class="st4" d="M27,6.3c-0.2,0.2-0.4,0.5-0.6,0.7c0.5,0,1,0,1.5,0.1c5.7-5.3,10.4-2.4,10.2,6.5c-0.2,9.4-5.3,22.3-11.5,28.7
			c-5.5,5.8-10.3,4.1-11-2.9c-0.4-0.3-0.8-0.6-1.2-1c0,9.8,5.2,12.1,11.8,5.2c6.7-7.1,12.3-21.2,12.6-31.5C39,1.9,33.7-0.8,27,6.3z"
			/>
	</g>
	<g>
		<path class="st4" d="M41,14.6c0.2,0.3,0.4,0.6,0.6,0.9c5.4,0.2,5.9,3.6,0.2,8.2c-6.7,5.5-19.1,10.9-27.8,12.1
			c-7.9,1.1-10-2-5.2-6.7c-0.1-0.3-0.1-0.6-0.2-1c-7,5.9-5.2,9.7,4.1,8.4c9.5-1.3,23.1-7.2,30.4-13.3C50.1,17.7,49,14,41,14.6z"/>
	</g>
	<g>
		<circle class="st3" cx="18.1" cy="35.6" r="1.1"/>
	</g>
	<g>
		<circle class="st3" cx="5" cy="27" r="1.6"/>
	</g>
	<g>
		<circle class="st5" cx="13" cy="8.8" r="1.1"/>
	</g>
	<g>
		<circle class="st3" cx="38.4" cy="13.4" r="1.6"/>
	</g>
	<g>
		<circle class="st5" cx="34.7" cy="29.3" r="1.1"/>
	</g>
	<g>
		<circle class="st3" cx="47.5" cy="25" r="1.6"/>
	</g>
	<g>
		<circle class="st5" cx="23.8" cy="45.3" r="1.6"/>
	</g>
</g>
</svg>
