<?xml version="1.0" encoding="utf-8"?>
<!-- Generator: Adobe Illustrator 25.4.1, SVG Export Plug-In . SVG Version: 6.00 Build 0)  -->
<svg version="1.1" id="Layer_1" xmlns="http://www.w3.org/2000/svg" xmlns:xlink="http://www.w3.org/1999/xlink" x="0px" y="0px"
	 viewBox="0 0 50 50" style="enable-background:new 0 0 50 50;" xml:space="preserve">
<style type="text/css">
	.st0{fill:#E2C5FD;}
	.st1{fill:#CD9AFD;}
	.st2{fill:#FFFFFF;}
	.st3{fill:#7968BC;}
	.st4{enable-background:new    ;}
	.st5{fill:#A18AFF;}
	.st6{fill:#8E73DD;}
	.st7{fill:url(#SVGID_1_);}
	.st8{fill:#D7994E;}
	.st9{fill:#604385;}
	.st10{display:none;fill:#5F4385;}
	.st11{display:none;fill:#D7984E;}
	.st12{display:none;fill:#D3A9FD;}
</style>
<g>
	<g>
		<g>
			<g>
				<g>
					<g>
						<g>
							<path class="st0" d="M47.1,37.4l-17.3,10c-0.4,0.2-1,0.2-1.3,0L2.2,32.3c-0.4-0.2-0.4-0.6,0-0.8l17.3-10c0.4-0.2,1-0.2,1.3,0
								l26.3,15.2C47.4,36.9,47.4,37.2,47.1,37.4z"/>
						</g>
						<g>
							<path class="st1" d="M26.3,38.1c0.2,0.1,0.2,0.3,0,0.4L22,41c-0.2,0.1-0.5,0.1-0.8,0l-8.5-4.9c-0.2-0.1-0.2-0.3,0-0.4
								l4.3-2.5c0.2-0.1,0.5-0.1,0.8,0L26.3,38.1z"/>
						</g>
						<g>
							<path class="st1" d="M47.3,37l0,1.4c0,0.1-0.1,0.3-0.3,0.4l-17.3,10c-0.4,0.2-1,0.2-1.3,0L2.2,33.7c-0.2-0.1-0.3-0.2-0.3-0.4
								l0-1.4c0,0.1,0.1,0.3,0.3,0.4l26.3,15.2c0.4,0.2,1,0.2,1.3,0l17.3-10C47.2,37.3,47.3,37.2,47.3,37z"/>
						</g>
					</g>
					<g>
						<g>
							<path class="st1" d="M46.7,16.4c0.4,0.2,0.7,0.7,0.7,1.1l0,18.5c0,0.4-0.3,0.6-0.7,0.4L20.8,21.5c-0.4-0.2-0.7-0.7-0.7-1.1
								l0-18.5c0-0.4,0.3-0.6,0.7-0.4L46.7,16.4z"/>
						</g>
						<g>
							<path class="st1" d="M33.8,9.7c0.3,0.2,0.6,0.6,0.6,1c0,0.4-0.3,0.5-0.6,0.3c-0.3-0.2-0.6-0.6-0.6-1
								C33.2,9.7,33.4,9.6,33.8,9.7z"/>
						</g>
						<g>
							<path class="st0" d="M48.1,17.2l0,18.5c0,0.2-0.1,0.4-0.2,0.4l-0.7,0.4c0.1-0.1,0.2-0.2,0.2-0.4l0-18.5
								c0-0.4-0.3-0.9-0.7-1.1L20.8,1.5c-0.2-0.1-0.3-0.1-0.5,0L21.1,1c0.1-0.1,0.3-0.1,0.5,0L47.4,16
								C47.8,16.2,48.1,16.8,48.1,17.2z"/>
						</g>
						<g>
							<polygon class="st2" points="46.5,19.2 46.4,35.2 21.1,20.6 21.1,4.5 							"/>
						</g>
					</g>
				</g>
			</g>
		</g>
		<g>
			<g>
				<g>
					<polygon class="st3" points="43.3,25.1 43.2,26.1 31.1,19.1 31.1,18.1 					"/>
				</g>
				<g class="st4">
					<g>
						<polygon class="st5" points="43.2,29.3 43.2,30.3 31.1,23.3 31.1,22.3 						"/>
					</g>
					<g>
						<polygon class="st6" points="43.2,27.2 43.2,28.2 31.1,21.2 31.1,20.2 						"/>
					</g>
					<g>
						<linearGradient id="SVGID_1_" gradientUnits="userSpaceOnUse" x1="23.5874" y1="15.3914" x2="42.4508" y2="15.3914">
							<stop  offset="0" style="stop-color:#A14FDB"/>
							<stop  offset="0.3678" style="stop-color:#B469AA"/>
							<stop  offset="1" style="stop-color:#D7994E"/>
						</linearGradient>
						<polygon class="st7" points="43.3,19.1 43.3,23.1 23.3,11.6 23.3,7.6 						"/>
					</g>
				</g>
				<g>
					<polygon class="st8" points="29.8,17.3 29.7,22.5 23.3,18.8 23.3,13.6 					"/>
				</g>
			</g>
			<g>
				<polygon class="st9" points="37.7,25.6 40.5,27.5 39.8,27.9 40.8,29.6 39.6,30.2 38.6,28.5 37.9,28.9 				"/>
			</g>
		</g>
	</g>
	<g>
		<g>
			<polygon class="st9" points="30,32.3 28.5,33.1 26.8,32.1 28.3,31.3 			"/>
		</g>
		<g>
			<polygon class="st9" points="28.1,33.3 26.7,34.2 25,33.2 26.4,32.4 			"/>
		</g>
		<g class="st4">
			<g>
				<polygon class="st9" points="22.4,23.5 20.9,24.4 19.2,23.4 20.7,22.6 				"/>
			</g>
			<g>
				<polygon class="st9" points="24.7,24.8 23.2,25.7 21.5,24.7 23,23.9 				"/>
			</g>
			<g>
				<polygon class="st9" points="21.4,25.1 19.9,26 17.3,24.5 18.8,23.6 				"/>
			</g>
			<g>
				<polygon class="st9" points="26.9,26.2 25.4,27 23.8,26 25.2,25.2 				"/>
			</g>
			<g>
				<polygon class="st9" points="23.6,26.4 22.1,27.3 20.5,26.3 21.9,25.4 				"/>
			</g>
			<g>
				<polygon class="st9" points="16.8,26.8 15.3,27.6 13.6,26.7 15.1,25.8 				"/>
			</g>
			<g>
				<polygon class="st9" points="20.9,27 19.4,27.9 15.5,25.6 17,24.7 				"/>
			</g>
			<g>
				<polygon class="st9" points="29.2,27.5 27.7,28.3 26,27.3 27.5,26.5 				"/>
			</g>
			<g>
				<polygon class="st9" points="25.9,27.7 24.4,28.6 22.7,27.6 24.2,26.7 				"/>
			</g>
			<g>
				<polygon class="st9" points="19.1,28.1 17.6,29 15.9,28 17.4,27.1 				"/>
			</g>
			<g>
				<polygon class="st9" points="23.2,28.3 21.7,29.2 20,28.2 21.5,27.3 				"/>
			</g>
			<g>
				<polygon class="st9" points="31.5,28.8 30,29.6 28.3,28.7 29.8,27.8 				"/>
			</g>
			<g>
				<polygon class="st9" points="28.2,29 26.7,29.9 25,28.9 26.5,28.1 				"/>
			</g>
			<g>
				<polygon class="st9" points="17.2,29.2 15.7,30 11.7,27.8 13.2,26.9 				"/>
			</g>
			<g>
				<polygon class="st9" points="21.3,29.4 19.8,30.3 18.2,29.3 19.6,28.4 				"/>
			</g>
			<g>
				<polygon class="st9" points="25.5,29.6 24,30.5 22.3,29.5 23.8,28.7 				"/>
			</g>
			<g>
				<polygon class="st9" points="33.7,30.1 32.3,30.9 30.6,30 32,29.1 				"/>
			</g>
			<g>
				<polygon class="st9" points="30.4,30.3 29,31.2 27.3,30.2 28.8,29.4 				"/>
			</g>
			<g>
				<polygon class="st9" points="23.6,30.7 22.1,31.6 20.4,30.6 21.9,29.7 				"/>
			</g>
			<g>
				<polygon class="st9" points="27.7,30.9 26.3,31.8 24.6,30.8 26,30 				"/>
			</g>
			<g>
				<polygon class="st9" points="25.9,32 24.4,32.9 22.7,31.9 24.2,31.1 				"/>
			</g>
			<g>
				<polygon class="st9" points="26.4,34.5 24.9,35.3 16.3,30.4 17.8,29.5 				"/>
			</g>
		</g>
		<g>
			<polygon class="st9" points="33.1,38.4 31.6,39.2 29.9,38.2 31.4,37.4 			"/>
		</g>
		<g>
			<polygon class="st9" points="30.8,37 29.3,37.9 27.6,36.9 29.1,36.1 			"/>
		</g>
		<g>
			<polygon class="st9" points="28.5,35.7 27.1,36.6 25.4,35.6 26.8,34.8 			"/>
		</g>
		<g>
			<polygon class="st9" points="30.4,34.6 28.9,35.5 27.2,34.5 28.7,33.7 			"/>
		</g>
		<g>
			<polygon class="st9" points="32.3,33.6 30.8,34.4 29.1,33.4 30.6,32.6 			"/>
		</g>
		<g>
			<polygon class="st9" points="35,33 33.5,33.8 31.8,32.9 33.3,32 			"/>
		</g>
		<g>
			<polygon class="st9" points="36,31.4 34.5,32.3 32.8,31.3 34.3,30.4 			"/>
		</g>
		<g>
			<polygon class="st9" points="42.8,35.3 41.3,36.2 39.6,35.2 41.1,34.4 			"/>
		</g>
		<g>
			<polygon class="st9" points="43.2,37.7 41.7,38.6 38.6,36.8 40.1,35.9 			"/>
		</g>
		<g>
			<polygon class="st9" points="34.9,37.3 33.5,38.1 31.8,37.2 33.3,36.3 			"/>
		</g>
		<g>
			<polygon class="st9" points="41.4,38.8 39.9,39.7 35.9,37.4 37.4,36.5 			"/>
		</g>
		<g>
			<polygon class="st9" points="36.8,36.2 35.3,37 33.6,36.1 35.1,35.2 			"/>
		</g>
		<g>
			<polygon class="st9" points="39.5,35.6 38,36.5 36.4,35.5 37.8,34.6 			"/>
		</g>
		<g>
			<polygon class="st9" points="40.5,34 39.1,34.9 37.4,33.9 38.9,33 			"/>
		</g>
		<g>
			<polygon class="st9" points="34.5,34.9 33.1,35.7 31.4,34.8 32.9,33.9 			"/>
		</g>
		<g>
			<polygon class="st9" points="37.3,34.3 35.8,35.1 34.1,34.2 35.6,33.3 			"/>
		</g>
		<g>
			<polygon class="st9" points="38.3,32.7 36.8,33.6 35.1,32.6 36.6,31.7 			"/>
		</g>
		<g>
			<polygon class="st9" points="45.1,36.6 43.6,37.5 41.9,36.5 43.4,35.7 			"/>
		</g>
		<g>
			<polygon class="st9" points="32.7,31.7 31.2,32.5 29.5,31.5 31,30.7 			"/>
		</g>
		<g>
			<polygon class="st9" points="35.3,39.7 33.9,40.5 32.2,39.6 33.7,38.7 			"/>
		</g>
		<g>
			<polygon class="st9" points="39.5,39.9 36.1,41.8 34.4,40.9 37.8,38.9 			"/>
		</g>
	</g>
</g>
<rect x="0.9" y="1.8" class="st10" width="3.6" height="3.6"/>
<rect x="1.5" y="6.7" class="st11" width="3" height="3"/>
<rect x="0.9" y="11.9" class="st12" width="3.6" height="2.3"/>
<rect x="0.7" y="15.4" class="st12" width="2.7" height="2.7"/>
</svg>
