<?xml version="1.0" encoding="utf-8"?>
<!-- Generator: Adobe Illustrator 25.4.1, SVG Export Plug-In . SVG Version: 6.00 Build 0)  -->
<svg version="1.1" id="Layer_1" xmlns="http://www.w3.org/2000/svg" xmlns:xlink="http://www.w3.org/1999/xlink" x="0px" y="0px"
	 viewBox="0 0 50 50" style="enable-background:new 0 0 50 50;" xml:space="preserve">
<style type="text/css">
	.st0{enable-background:new    ;}
	.st1{fill:#E6B7FD;}
	.st2{fill:#DE9AFD;}
	.st3{fill:#F4943D;}
	.st4{fill:#F9AD6E;}
</style>
<g>
	<g>
		<g class="st0">
			<g>
				<path class="st1" d="M19.4,23.4l-4.3,2.5c-0.9,0.5-2.2,0.5-3.6-0.4l-2.3-1.3c-2.8-1.6-5.1-5.6-5.1-8.8c0-1.6,0.6-2.7,1.5-3.3
					l4.3-2.5c-0.9,0.5-1.5,1.7-1.5,3.3c0,3.2,2.3,7.2,5.1,8.8l2.3,1.3C17.2,23.8,18.5,23.9,19.4,23.4z"/>
			</g>
			<g>
				<path class="st1" d="M23.9,21.9c0,2.6-0.9,4.4-2.4,5.2l-4.3,2.5c1.5-0.9,2.4-2.7,2.4-5.2c0-5.2-3.6-11.5-8.1-14.1L9.2,9
					C6.9,7.7,4.9,7.6,3.4,8.4l4.3-2.5c1.5-0.9,3.5-0.7,5.8,0.6l2.3,1.3C20.3,10.4,23.9,16.7,23.9,21.9z"/>
			</g>
			<g>
				<path class="st2" d="M11.5,10.3c4.5,2.6,8.1,8.9,8.1,14.1c0,5.2-3.7,7.3-8.2,4.7l-2.3-1.3C4.6,25.1,1,18.8,1,13.6
					C1,8.5,4.7,6.4,9.2,9L11.5,10.3z M11.4,25.5c2.8,1.6,5.1,0.3,5.1-2.9s-2.3-7.2-5.1-8.8l-2.3-1.3c-2.8-1.6-5.1-0.3-5.1,2.9
					s2.3,7.2,5.1,8.8L11.4,25.5"/>
			</g>
		</g>
	</g>
	<g>
		<g class="st0">
			<g>
				<path class="st3" d="M15.6,26.1l0-5c0-1.1,0.7-2.1,2.1-2.9c2.8-1.6,7.3-1.6,10.2,0l7.4,4.3c1.4,0.8,2.1,1.9,2.1,3l0,5
					c0-1.1-0.7-2.1-2.1-3l-7.4-4.3c-2.8-1.6-7.4-1.6-10.2,0C16.3,24,15.6,25,15.6,26.1z"/>
				<path class="st3" d="M41.6,25.4l0,5c0,1.7-1.1,3.4-3.3,4.7c-4.5,2.6-11.7,2.6-16.2,0l-7.4-4.3c-2.3-1.3-3.4-3-3.4-4.7l0-5
					c0,1.7,1.1,3.4,3.4,4.7l7.4,4.3c4.5,2.6,11.8,2.6,16.2,0C40.5,28.8,41.6,27.1,41.6,25.4z"/>
			</g>
			<g>
				<path class="st4" d="M38.2,20.7c4.5,2.6,4.5,6.8,0.1,9.4c-4.5,2.6-11.7,2.6-16.2,0l-7.4-4.3c-4.5-2.6-4.5-6.8-0.1-9.4
					c4.5-2.6,11.7-2.6,16.2,0L38.2,20.7z M25.1,28.3c2.8,1.6,7.4,1.6,10.2,0c2.8-1.6,2.8-4.3,0-5.9l-7.4-4.3
					c-2.8-1.6-7.4-1.6-10.2,0s-2.8,4.3,0,5.9L25.1,28.3"/>
			</g>
			<g>
				<path class="st2" d="M19.6,25.1c0-0.2,0-0.5,0-0.8c0-3.8-2-8.3-4.8-11.4c0,0.1,0,0.2-0.1,0.2c-0.1,0.2-0.6,1.2-1.1,2.3
					c1.7,1.9,3,4.7,3,7c0,0.2,0,0.4,0,0.5c0.3,0.3,0.7,0.6,1.2,0.9L19.6,25.1z"/>
			</g>
		</g>
	</g>
	<g>
		<g>
			<path class="st1" d="M9.2,9l2.3,1.3c4.1,2.4,7.5,7.8,8,12.7h4.3c0-0.4,0.1-0.7,0.1-1.1c0-5.2-3.6-11.5-8.1-14.1l-2.3-1.3
				C11.2,5.2,9.2,5,7.7,5.9L3.4,8.4C4.9,7.6,6.9,7.7,9.2,9z"/>
		</g>
	</g>
	<g>
		<g class="st0">
			<g>
				<path class="st1" d="M44.5,37.9l-4.3,2.5c-0.9,0.5-2.2,0.5-3.6-0.4l-2.3-1.3c-2.8-1.6-5.1-5.6-5.1-8.8c0-1.6,0.6-2.7,1.5-3.3
					l4.3-2.5c-0.9,0.5-1.5,1.7-1.5,3.3c0,3.2,2.3,7.2,5.1,8.8l2.3,1.3C42.3,38.3,43.5,38.4,44.5,37.9z"/>
			</g>
			<g>
				<path class="st1" d="M49,36.4c0,2.6-0.9,4.4-2.4,5.2l-4.3,2.5c1.5-0.9,2.4-2.7,2.4-5.2c0-5.2-3.6-11.5-8.1-14.1l-2.3-1.3
					c-2.3-1.3-4.3-1.4-5.8-0.6l4.3-2.5c1.5-0.9,3.5-0.7,5.8,0.6l2.3,1.3C45.4,24.9,49,31.2,49,36.4z"/>
			</g>
			<g>
				<path class="st2" d="M36.6,24.8c4.5,2.6,8.1,8.9,8.1,14.1c0,5.2-3.7,7.3-8.2,4.7l-2.3-1.3c-4.5-2.6-8.1-8.9-8.1-14.1
					c0-5.2,3.7-7.3,8.2-4.7L36.6,24.8z M36.5,40c2.8,1.6,5.1,0.3,5.1-2.9s-2.3-7.2-5.1-8.8L34.2,27c-2.8-1.6-5.1-0.3-5.1,2.9
					c0,3.2,2.3,7.2,5.1,8.8L36.5,40"/>
			</g>
		</g>
	</g>
	<path class="st3" d="M36.3,32.2H35v-0.8c-4.2,1.1-9.5,0.7-13-1.3L21.8,30c0,0.1,0,0.2-0.1,0.2c-0.5,1.4-0.9,2.7-1.3,4l1.6,0.9
		c4.5,2.6,11.8,2.6,16.2,0c0.2-0.1,0.4-0.2,0.6-0.4C37.8,34.1,36.9,33.2,36.3,32.2z"/>
	<g>
		<path class="st4" d="M25.1,28.3l-2.5-1.4c-0.3,1.3-0.7,2.5-0.8,3l0.2,0.1c3.5,2,8.7,2.5,13,1.3v-2.5c0-0.1,0-0.3-0.1-0.4
			C32.2,29.9,27.8,29.9,25.1,28.3z"/>
	</g>
</g>
</svg>
