<?xml version="1.0" encoding="utf-8"?>
<!-- Generator: Adobe Illustrator 25.4.1, SVG Export Plug-In . SVG Version: 6.00 Build 0)  -->
<svg version="1.1" id="Layer_1" xmlns="http://www.w3.org/2000/svg" xmlns:xlink="http://www.w3.org/1999/xlink" x="0px" y="0px"
	 viewBox="0 0 50 50" style="enable-background:new 0 0 50 50;" xml:space="preserve">
<style type="text/css">
	.st0{fill:#E2B7FD;}
	.st1{fill:#D89AFD;}
	.st2{fill:#FFFFFF;}
	.st3{fill:#CE823E;}
	.st4{fill:#F4933B;}
	.st5{fill:#F2AE70;}
	.st6{fill:#D68847;}
	.st7{fill:#F4AB69;}
	.st8{fill:#D379FE;}
	.st9{fill:#A56BFB;}
	.st10{fill:#9B39D1;}
	.st11{fill:#B944FB;}
	.st12{fill:#DEAAFD;}
	.st13{enable-background:new    ;}
	.st14{fill:#F99841;}
	.st15{fill:#F4AC6C;}
	.st16{fill:#371B4F;}
</style>
<g>
	<g>
		<path class="st0" d="M40.9,1.1C40.7,1,40.5,1,40.2,1.1L8.4,19.5c-0.6,0.3-1,1.1-1,1.7l0.1,26.3c0,0.3,0.1,0.5,0.3,0.6l1.3,0.8
			c-0.2-0.1-0.3-0.3-0.3-0.6L8.7,22c0-0.6,0.4-1.4,1-1.7L41.5,1.9c0.3-0.2,0.5-0.2,0.7-0.1L40.9,1.1z"/>
		<g>
			<path class="st1" d="M41.5,1.9c0.6-0.3,1-0.1,1,0.6l0.1,26.3c0,0.6-0.4,1.4-1,1.7L9.8,48.9c-0.6,0.3-1,0.1-1-0.6L8.7,22
				c0-0.6,0.4-1.4,1-1.7L41.5,1.9z"/>
		</g>
		<g>
			<g>
				<polygon class="st2" points="41.3,5.7 41.3,29.2 10,47.3 10,23.8 				"/>
			</g>
		</g>
		<g>
			<g>
				<path class="st2" d="M37.4,5.7C37.7,5.5,38,5.6,38,6c0,0.3-0.2,0.7-0.5,0.9c-0.3,0.2-0.5,0-0.5-0.3C36.9,6.2,37.2,5.8,37.4,5.7z
					"/>
			</g>
			<g>
				<path class="st2" d="M40.8,3.8c0.3-0.2,0.5,0,0.5,0.3s-0.2,0.7-0.5,0.9c-0.3,0.2-0.5,0-0.5-0.3C40.2,4.3,40.5,3.9,40.8,3.8z"/>
			</g>
			<g>
				<path class="st2" d="M39.1,4.7c0.3-0.2,0.5,0,0.5,0.3c0,0.3-0.2,0.7-0.5,0.9c-0.3,0.2-0.5,0-0.5-0.3C38.6,5.3,38.8,4.9,39.1,4.7
					z"/>
			</g>
		</g>
	</g>
	<g>
		<g>
			<g>
				<path class="st3" d="M16.2,26.4l3.2-0.5c-0.5,1.7-1.7,3.5-3.2,4.3L16.2,26.4z"/>
			</g>
			<g>
				<path class="st4" d="M18.8,22.4c0.4,0.4,0.7,1.1,0.7,2c0,0.5-0.1,1-0.2,1.5l-3.2,0.5L18.8,22.4z"/>
			</g>
			<g>
				<path class="st5" d="M13,26.8l3.2-0.5l0,3.9c-1.9,1.1-3.4,0.2-3.4-1.9C12.8,27.8,12.9,27.3,13,26.8z"/>
			</g>
			<g>
				<path class="st6" d="M16.2,22.5l0,3.9L13,26.8C13.5,25.1,14.7,23.3,16.2,22.5z"/>
			</g>
			<g>
				<path class="st7" d="M16.2,22.5c1.1-0.6,2.1-0.6,2.7,0l-2.7,3.9L16.2,22.5z"/>
			</g>
			<g>
				<path class="st8" d="M25.3,17.2l0,1.5c-0.9,0.5-1.6,1.6-1.9,2.6l-1.3,0.2C22.6,19.8,23.8,18.1,25.3,17.2z"/>
			</g>
			<g>
				<path class="st9" d="M25.3,17.2c1.1-0.6,2.1-0.6,2.7,0l-1.1,1.5c-0.4-0.3-1-0.4-1.6,0L25.3,17.2z"/>
			</g>
			<g>
				<path class="st10" d="M27.2,20.8l1.3-0.2c-0.5,1.7-1.7,3.5-3.2,4.3l0-1.5C26.1,23,26.9,21.9,27.2,20.8z"/>
			</g>
			<g>
				<path class="st11" d="M27.9,17.2c0.4,0.4,0.7,1.1,0.7,2c0,0.5-0.1,1-0.2,1.5l-1.3,0.2c0.1-0.3,0.1-0.6,0.1-0.9
					c0-0.5-0.2-0.9-0.4-1.2L27.9,17.2z"/>
			</g>
			<g>
				<path class="st12" d="M22.1,21.6l1.3-0.2c-0.1,0.3-0.1,0.6-0.1,0.9c0,1.3,0.9,1.8,2.1,1.2l0,1.5c-1.9,1.1-3.4,0.2-3.4-1.9
					C21.9,22.6,22,22.1,22.1,21.6z"/>
			</g>
			<g>
				<path class="st9" d="M34.5,12c0.9-0.5,1.8-0.5,2.4,0L36,13.3c-0.4-0.3-0.9-0.3-1.5,0L34.5,12z"/>
			</g>
			<g>
				<path class="st11" d="M37,12.2c0.4,0.4,0.6,1,0.6,1.8c0,0.4-0.1,0.8-0.2,1.3l-1,0.1c0.1-0.3,0.1-0.5,0.1-0.8
					c0-0.5-0.1-0.9-0.4-1.2L37,12.2z"/>
			</g>
			<g>
				<path class="st8" d="M34.2,12.2l0,1.2C33.4,14,32.7,15,32.4,16l-1,0.1C31.8,14.5,33,13,34.2,12.2z"/>
			</g>
			<g>
				<path class="st12" d="M31.3,16.5l1-0.1c-0.1,0.3-0.1,0.5-0.1,0.8c0,1.3,0.9,1.9,2.1,1.3l0,1.2c-1.7,0.9-3.1,0.1-3.1-1.9
					C31.1,17.3,31.1,16.9,31.3,16.5z"/>
			</g>
			<g>
				<path class="st10" d="M36.3,15.7l1-0.1c-0.5,1.6-1.6,3.2-2.9,3.9l0-1.2C35.3,17.8,36,16.8,36.3,15.7z"/>
			</g>
		</g>
	</g>
	<g>
		<g class="st13">
			<g>
				<polygon class="st9" points="16.7,37.8 16.7,40.8 15.7,41.4 15.6,38.4 				"/>
			</g>
			<g>
				<polygon class="st11" points="17.7,35.4 17.7,40.2 16.7,40.8 16.7,36 				"/>
			</g>
		</g>
		<g>
			<polygon class="st9" points="20.4,37.7 20.4,38.7 19.3,39.3 19.3,38.3 			"/>
		</g>
		<g>
			<polygon class="st11" points="21.4,36 21.4,38 20.4,38.7 20.4,36.6 			"/>
		</g>
		<g>
			<polygon class="st14" points="25.1,29 25.1,35.9 24.1,36.5 24.1,29.6 			"/>
		</g>
		<g>
			<polygon class="st15" points="24.1,32 24.1,36.5 23,37.1 23,32.6 			"/>
		</g>
		<g class="st13">
			<g>
				<polygon class="st9" points="27.8,32.5 27.8,34.4 26.7,35 26.7,33.1 				"/>
			</g>
			<g>
				<polygon class="st11" points="28.8,30.9 28.8,33.8 27.8,34.4 27.8,31.5 				"/>
			</g>
		</g>
		<g>
			<polygon class="st16" points="30.2,33 30.2,33.1 13.9,42.5 13.9,42 13.6,42.1 13.6,42 13.9,41.9 13.9,41.3 13.6,41.5 13.6,41.4 
				13.9,41.2 13.9,40.7 13.6,40.9 13.6,40.8 13.9,40.6 13.9,40.1 13.6,40.3 13.6,40.2 13.9,40 13.9,39.5 13.6,39.6 13.6,39.5 
				13.9,39.4 13.9,38.8 13.6,39 13.6,38.9 13.9,38.7 13.9,38.2 13.6,38.4 13.6,38.3 13.9,38.1 13.9,37.6 13.6,37.8 13.6,37.7 
				13.9,37.5 13.9,37 13.6,37.1 13.6,37 13.9,36.9 13.9,36.3 13.6,36.5 13.6,36.4 13.9,36.2 13.9,35.7 13.6,35.9 13.6,35.8 
				13.9,35.6 13.9,35.1 13.6,35.3 13.6,35.1 13.9,35 13.9,34.5 13.6,34.6 13.6,34.5 14,34.3 14,42.3 			"/>
		</g>
	</g>
	<g>
		<g>
			<polygon class="st1" points="39.3,25 39.3,25.8 32.6,29.7 32.6,28.9 			"/>
		</g>
		<g>
			<polygon class="st1" points="35.6,28.8 35.6,29.6 32.6,31.4 32.6,30.6 			"/>
		</g>
		<g>
			<polygon class="st1" points="37.4,24.4 37.4,25.1 32.6,28 32.6,27.2 			"/>
		</g>
		<g>
			<polygon class="st1" points="39.3,21.6 39.3,22.4 32.6,26.3 32.6,25.5 			"/>
		</g>
	</g>
</g>
</svg>
