<?xml version="1.0" encoding="utf-8"?>
<!-- Generator: Adobe Illustrator 25.4.1, SVG Export Plug-In . SVG Version: 6.00 Build 0)  -->
<svg version="1.1" id="Layer_1" xmlns="http://www.w3.org/2000/svg" xmlns:xlink="http://www.w3.org/1999/xlink" x="0px" y="0px"
	 viewBox="0 0 50 50" style="enable-background:new 0 0 50 50;" xml:space="preserve">
<style type="text/css">
	.st0{enable-background:new    ;}
	.st1{fill:#AE6BFB;}
	.st2{fill:#5A2E77;}
	.st3{fill:#3A1B4F;}
	.st4{fill:#663885;}
	.st5{fill:#E29AFD;}
	.st6{fill:#F1D9F6;}
	.st7{fill:#E9B7FD;}
	.st8{fill:#E99842;}
	.st9{fill:#C18FFF;}
</style>
<g>
	<g>
		<g>
			<g>
				<g>
					<g class="st0">
						<g>
							<path class="st1" d="M16.9,8.7l0.4-0.8l0.2,0.1c0-3.7,2.4-5.3,5.5-3.9V3.5c-3.4-1.6-6.1,0.2-6.1,4.2L16.9,8.7z"/>
						</g>
						<g>
							<g>
								<g>
									<g class="st0">
										<path class="st1" d="M19.2,7.5c-0.3-0.2-0.8-0.2-1.3,0.1c-1,0.6-1.9,2.1-1.9,3.3c0,0.6,0.2,1,0.6,1.2l-0.6-0.4
											c-0.3-0.2-0.5-0.6-0.6-1.2c0-1.2,0.8-2.7,1.9-3.3c0.5-0.3,1-0.3,1.3-0.1L19.2,7.5z"/>
									</g>
								</g>
							</g>
						</g>
						<path class="st2" d="M21.3,7.7c-0.5-0.3-1.1-0.2-1.8,0.2c-1.4,0.8-2.5,2.7-2.5,4.3c0,0.8,0.3,1.3,0.7,1.6L16.4,13
							c-0.4-0.3-0.7-0.8-0.7-1.6c0-1.6,1.1-3.5,2.5-4.3c0.7-0.4,1.3-0.4,1.8-0.2L21.3,7.7z"/>
						<g>
							<path class="st2" d="M17,12.2c0,1.6,1.1,2.2,2.5,1.4c1.4-0.8,2.5-2.7,2.5-4.3c0-1.6-1.1-2.2-2.5-1.4
								C18.2,8.7,17,10.6,17,12.2z"/>
						</g>
						<g>
							<path class="st3" d="M17.9,11.8c0,1.1,0.8,1.5,1.7,1c1-0.6,1.7-1.9,1.7-3c0-1.1-0.8-1.5-1.7-1C18.6,9.3,17.9,10.7,17.9,11.8z
								"/>
						</g>
						<g>
							<path class="st4" d="M18.1,12.5c0.3,0.5,0.9,0.6,1.6,0.2c1-0.6,1.7-1.9,1.7-3c0-0.5-0.2-0.9-0.4-1.1c0.1,0.2,0.2,0.5,0.2,0.8
								c0,1.1-0.8,2.4-1.7,3C18.8,12.8,18.4,12.8,18.1,12.5z"/>
						</g>
					</g>
				</g>
			</g>
			<g>
				<path class="st5" d="M19.2,4.1c-1.1,0.6-1.8,2-1.8,4l0,1l2.1-1.2l0-1c0-2,0.7-3.3,1.8-4L19.2,4.1z"/>
			</g>
			<g>
				<g>
					<g>
						<path class="st6" d="M17.4,8.4c0.5-3.2,9.8-3.3,11.4-0.7c1.9,3.1,0.3,12.5,0.8,10.3c0,0,0,0.1-0.1,0.2
							c-0.1,0.7-0.7,0.8-0.1,2.8l-4,7.3l-6.4-0.4c0,0-0.6-2.5-0.6-4.4c-0.7-0.6,0-2.4-0.2-4.7c0,0-0.3-2.2-0.5-4.6
							C17,12,16.9,10.8,17.4,8.4z"/>
					</g>
				</g>
				<path class="st4" d="M17.8,14.1c0,0-0.7-4.5,0.5-6.6c0.1-0.2,0.4-0.3,0.6-0.1c0.9,1,1.9,1.7,3.8,1.9c0.9,0.1,1.8,0.1,2.7,0
					c1.2-0.1,3.7,0.5,3.4,7.9l2.9-0.2c0,0,5.4-16.1-7.6-14.8c-3.7,0.4-4.5,1.3-5.5,2.3c-0.7,0.7-1.2,1.9-1.2,3.5
					C17.4,8.1,16.2,11.5,17.8,14.1z"/>
			</g>
		</g>
		<g>
			<g>
				<g>
					<g>
						<g>
							<g>
								<g>
									<g>
										<g>
											<g class="st0">
												<path class="st4" d="M32.3,13.4c-0.5-0.3-1.1-0.2-1.8,0.2c-1.4,0.8-2.5,2.7-2.5,4.3c0,0.8,0.3,1.3,0.7,1.6l-1.4-0.8
													c-0.4-0.3-0.7-0.8-0.7-1.6c0-1.6,1.1-3.5,2.5-4.3c0.7-0.4,1.3,1.9,1.8,2.2L32.3,13.4z"/>
												<g>
													<path class="st3" d="M28,17.9c0,1.6,1.1,2.2,2.5,1.4c1.4-0.8,2.5-2.7,2.5-4.3c0-1.6-1.1-2.2-2.5-1.4
														C29.1,14.4,28,16.3,28,17.9z"/>
												</g>
											</g>
										</g>
									</g>
									<g>
										<g>
											<g class="st0">
												<path class="st1" d="M32.8,14.7c-0.3-0.2-0.8-0.2-1.3,0.1c-1,0.6-1.9,2.1-1.9,3.3c0,0.6,0.2,1,0.6,1.2l-0.8-0.5
													c-0.3-0.2-0.5-0.6-0.6-1.2c0-1.2,0.8-2.7,1.9-3.3c0.5-0.3,1-0.3,1.3-0.1L32.8,14.7z"/>
											</g>
										</g>
									</g>
									<g>
										<path class="st7" d="M29.6,18.1c0,1.2,0.9,1.7,1.9,1.1c1-0.6,1.9-2.1,1.9-3.3c0-1.2-0.9-1.7-1.9-1.1
											C30.4,15.5,29.6,16.9,29.6,18.1z"/>
									</g>
								</g>
								<g>
									<g class="st0">
										<g>
											<path class="st7" d="M25.7,2.7c-1.9-1.1-3.6-1.2-4.8-0.5l-2.1,1.2c1.2-0.7,2.9-0.6,4.8,0.5c3.7,2.2,6.7,7.4,6.7,11.7
												l0,2.3l2.1-1.2l0-2.3C32.5,10.1,29.5,4.8,25.7,2.7z"/>
										</g>
									</g>
								</g>
							</g>
						</g>
					</g>
				</g>
			</g>
			<g>
				<path class="st1" d="M17.1,5.9h0.7C18.7,3.6,21,3,23.7,4.5c3.4,2,6.2,6.8,6.2,10.7l0,0.4h0.6l0-0.1c0-4.3-3-9.5-6.7-11.7
					C20.5,2.1,17.9,3,17.1,5.9z"/>
			</g>
		</g>
	</g>
	<g>
		<g>
			<path class="st2" d="M11.1,33.6c0.6,6,3,8.1,7.1,10.7c0,0,0,0,0,0c11.1,6.2,16.8,3.5,19.4,2.3c0.9-0.4,1.4-1.3,1.4-2.3l-0.2-10
				c0-3.7-1.8-7.2-4.7-9.3c-1.9-1.4-3.6-2.4-3.6-2.4c-3.3,0.7-5.5,6.1-9.4,5.1c-3.2-0.8-2.9-8.9-2.9-8.9
				C9.2,14.2,11.1,33.6,11.1,33.6z"/>
			<g>
				<g>
					<g>
						<g>
							<path class="st1" d="M17.6,43.7L17.6,43.7c0.4,0.4,0.7,0.6,0.7,0.6c3.8-4.4,12.4-21.8,12.4-21.8c-1,0.2-1.8,1.8-2.7,1.8
								c-3.5,3.7-6.4,2-6.4,2c-2.5-1.4-3.6-4.1-3.7-6.2c-0.1,0-0.2-0.1-0.3-0.1C14.3,34.8,17.6,43.7,17.6,43.7z"/>
						</g>
						<g>
							<polygon class="st8" points="24.1,27.7 21.5,29.9 20.8,41 18.2,44.3 17.5,43.8 16.8,39.2 20.2,29.1 18.5,24.6 							"/>
						</g>
						<g>
							<g>
								<g>
									<path class="st9" d="M16.6,22.2c-0.3,1.9,1.5,5.9,1.5,5.9c0.9,0,3.5-1.8,3.5-1.8c-3.5-3.5-3.3-7.5-3.3-7.5
										C17.9,20.5,16.8,20.3,16.6,22.2z"/>
									<path class="st9" d="M23.6,30.4c-1.5-1.3-2.1-4.1-2.1-4.1c4.6,0.3,7.9-5.3,7.9-5.3c0.6,1.1,1.2,1.6,1.2,1.6
										C28.6,27.8,23.6,30.4,23.6,30.4z"/>
								</g>
							</g>
						</g>
					</g>
					<g>
						<path class="st4" d="M30.6,22.6L18.2,44.3l9.8-9.2l-0.8-3h3.1C33.1,27.8,30.6,22.6,30.6,22.6z"/>
						<path class="st4" d="M15.7,27.7l-2,1.4c0,3.5,3.8,14.6,3.8,14.6c-1.1-9.5,0.7-24.9,0.7-24.9c-3.3,3.7-4.2,6.3-4.2,6.3
							L15.7,27.7z"/>
					</g>
				</g>
			</g>
		</g>
		<g>
			<path class="st1" d="M21.1,18.6c-0.2,0.2,4.4,2.2,8.3-0.4c-0.2-0.3,0-0.6-0.1-0.9c-1,1-5.4,2.2-8,0.5
				C21.2,18.1,21.2,18.3,21.1,18.6z"/>
			<path class="st8" d="M19.2,18.6l2,0.7c0.5,0.2,1-0.1,1.1-0.6c0.2-0.5-0.1-1-0.6-1.1l-2-0.7c-0.5-0.2-1,0.1-1.1,0.6
				C18.5,18,18.8,18.5,19.2,18.6z"/>
		</g>
	</g>
</g>
</svg>
